<?xml version="1.0" encoding="UTF-8" standalone="no"?>
<!DOCTYPE svg PUBLIC "-//W3C//DTD SVG 1.1//EN"
 "http://www.w3.org/Graphics/SVG/1.1/DTD/svg11.dtd">
<!-- Generated by graphviz version 12.2.1 (20241206.2353)
 -->
<!-- Pages: 1 -->
<svg width="447pt" height="98pt"
 viewBox="0.00 0.00 446.91 98.00" xmlns="http://www.w3.org/2000/svg" xmlns:xlink="http://www.w3.org/1999/xlink">
<g id="graph0" class="graph" transform="scale(1 1) rotate(0) translate(4 94)">
<polygon fill="white" stroke="none" points="-4,4 -4,-94 442.91,-94 442.91,4 -4,4"/>
<!-- a -->
<g id="node1" class="node">
<title>a</title>
<ellipse fill="none" stroke="black" cx="92.3" cy="-18" rx="58" ry="18"/>
<text text-anchor="middle" x="92.3" y="-12.95" font-family="Times New Roman,serif" font-size="14.00">Veränderung</text>
</g>
<!-- b -->
<g id="node2" class="node">
<title>b</title>
<ellipse fill="none" stroke="black" cx="357.88" cy="-18" rx="81.04" ry="18"/>
<text text-anchor="middle" x="357.88" y="-12.95" font-family="Times New Roman,serif" font-size="14.00">Ethische Probleme</text>
</g>
<!-- a&#45;&gt;b -->
<g id="edge1" class="edge">
<title>a&#45;&gt;b</title>
<path fill="none" stroke="black" d="M150.49,-18C184.05,-18 227.22,-18 265.4,-18"/>
<polygon fill="black" stroke="black" points="265.04,-21.5 275.04,-18 265.04,-14.5 265.04,-21.5"/>
<text text-anchor="middle" x="230.72" y="-21.2" font-family="Times New Roman,serif" font-size="14.00">verursacht</text>
</g>
<!-- c -->
<g id="node3" class="node">
<title>c</title>
<ellipse fill="none" stroke="black" cx="92.3" cy="-72" rx="92.3" ry="18"/>
<text text-anchor="middle" x="92.3" y="-66.95" font-family="Times New Roman,serif" font-size="14.00">Ethische Problemlage</text>
</g>
<!-- d -->
<g id="node4" class="node">
<title>d</title>
<ellipse fill="none" stroke="black" cx="357.88" cy="-72" rx="58" ry="18"/>
<text text-anchor="middle" x="357.88" y="-66.95" font-family="Times New Roman,serif" font-size="14.00">Veränderung</text>
</g>
<!-- c&#45;&gt;d -->
<g id="edge2" class="edge">
<title>c&#45;&gt;d</title>
<path fill="none" stroke="black" d="M184.74,-72C218.78,-72 256.78,-72 288.41,-72"/>
<polygon fill="black" stroke="black" points="288.24,-75.5 298.24,-72 288.24,-68.5 288.24,-75.5"/>
<text text-anchor="middle" x="230.72" y="-75.2" font-family="Times New Roman,serif" font-size="14.00">erfordert</text>
</g>
</g>
</svg>
