<?xml version="1.0" encoding="UTF-8" standalone="no"?>
<!DOCTYPE svg PUBLIC "-//W3C//DTD SVG 1.1//EN"
 "http://www.w3.org/Graphics/SVG/1.1/DTD/svg11.dtd">
<!-- Generated by graphviz version 12.2.1 (20241206.2353)
 -->
<!-- Pages: 1 -->
<svg width="401pt" height="133pt"
 viewBox="0.00 0.00 400.85 132.61" xmlns="http://www.w3.org/2000/svg" xmlns:xlink="http://www.w3.org/1999/xlink">
<g id="graph0" class="graph" transform="scale(1 1) rotate(0) translate(4 128.61)">
<polygon fill="white" stroke="none" points="-4,4 -4,-128.61 396.85,-128.61 396.85,4 -4,4"/>
<!-- a -->
<g id="node1" class="node">
<title>a</title>
<ellipse fill="none" stroke="black" cx="92.3" cy="-47.49" rx="92.3" ry="18"/>
<text text-anchor="middle" x="92.3" y="-42.44" font-family="Times New Roman,serif" font-size="14.00">Ethische Problemlage</text>
</g>
<!-- b -->
<g id="node2" class="node">
<title>b</title>
<ellipse fill="none" stroke="black" cx="334.85" cy="-47.49" rx="58" ry="18"/>
<text text-anchor="middle" x="334.85" y="-42.44" font-family="Times New Roman,serif" font-size="14.00">Veränderung</text>
</g>
<!-- a&#45;&gt;b -->
<g id="edge1" class="edge">
<title>a&#45;&gt;b</title>
<path fill="none" stroke="black" d="M116.57,-65.22C148.59,-87.36 208.02,-120.37 258.84,-103.49 277.57,-97.27 295.4,-84.36 308.98,-72.5"/>
<polygon fill="black" stroke="black" points="311.11,-75.29 316.13,-65.96 306.39,-70.12 311.11,-75.29"/>
<text text-anchor="middle" x="230.72" y="-111.31" font-family="Times New Roman,serif" font-size="14.00">erfordert</text>
</g>
<!-- a&#45;&gt;b -->
<!-- b&#45;&gt;a -->
<g id="edge3" class="edge">
<title>b&#45;&gt;a</title>
<path fill="none" stroke="black" d="M311.93,-30.62C297.67,-20.73 278.18,-9.19 258.84,-3.99 216.12,7.5 167.09,-9.09 133.55,-24.98"/>
<polygon fill="black" stroke="black" points="132,-21.84 124.59,-29.41 135.1,-28.12 132,-21.84"/>
<text text-anchor="middle" x="230.72" y="-7.19" font-family="Times New Roman,serif" font-size="14.00">verursacht</text>
</g>
</g>
</svg>
