<?xml version="1.0" encoding="UTF-8" standalone="no"?>
<!DOCTYPE svg PUBLIC "-//W3C//DTD SVG 1.1//EN"
 "http://www.w3.org/Graphics/SVG/1.1/DTD/svg11.dtd">
<!-- Generated by graphviz version 12.2.1 (20241206.2353)
 -->
<!-- Pages: 1 -->
<svg width="864pt" height="324pt"
 viewBox="0.00 0.00 864.00 323.86" xmlns="http://www.w3.org/2000/svg" xmlns:xlink="http://www.w3.org/1999/xlink">
<g id="graph0" class="graph" transform="scale(0.840105 0.840105) rotate(0) translate(4 381.5)">
<polygon fill="white" stroke="none" points="-4,4 -4,-381.5 1024.44,-381.5 1024.44,4 -4,4"/>
<g id="clust1" class="cluster">
<title>cluster_principles</title>
<polygon fill="none" stroke="#3498db" stroke-dasharray="5,2" points="299,-8 299,-303.5 485,-303.5 485,-8 299,-8"/>
<text text-anchor="middle" x="392" y="-286.2" font-family="Times New Roman,serif" font-size="14.00">Die 4 Grundprinzipien</text>
</g>
<g id="clust2" class="cluster">
<title>cluster_variants</title>
<polygon fill="none" stroke="#27ae60" stroke-dasharray="5,2" points="584,-8 584,-303.5 754,-303.5 754,-8 584,-8"/>
<text text-anchor="middle" x="669" y="-286.2" font-family="Times New Roman,serif" font-size="14.00">Varianten &amp; Konzepte</text>
</g>
<g id="clust3" class="cluster">
<title>cluster_econ</title>
<polygon fill="none" stroke="#f1c40f" stroke-dasharray="5,2" points="145,-154 145,-303.5 291,-303.5 291,-154 145,-154"/>
<text text-anchor="middle" x="218" y="-286.2" font-family="Times New Roman,serif" font-size="14.00">Ökonomischer Kontext</text>
</g>
<g id="clust4" class="cluster">
<title>cluster_critique</title>
<polygon fill="none" stroke="#e74c3c" stroke-dasharray="5,2" points="832,-81 832,-303.5 1000,-303.5 1000,-81 832,-81"/>
<text text-anchor="middle" x="916" y="-286.2" font-family="Times New Roman,serif" font-size="14.00">Kritikpunkte</text>
</g>
<!-- U -->
<g id="node1" class="node">
<title>U</title>
<path fill="#2c3e50" stroke="black" stroke-width="2" d="M586.38,-377.5C586.38,-377.5 419.62,-377.5 419.62,-377.5 413.62,-377.5 407.62,-371.5 407.62,-365.5 407.62,-365.5 407.62,-353.5 407.62,-353.5 407.62,-347.5 413.62,-341.5 419.62,-341.5 419.62,-341.5 586.38,-341.5 586.38,-341.5 592.38,-341.5 598.38,-347.5 598.38,-353.5 598.38,-353.5 598.38,-365.5 598.38,-365.5 598.38,-371.5 592.38,-377.5 586.38,-377.5"/>
<text text-anchor="middle" x="503" y="-362.55" font-family="Arial" font-size="11.00" fill="white">UTILITARISMUS</text>
<text text-anchor="middle" x="503" y="-349.05" font-family="Arial" font-size="11.00" fill="white">(Das größte Glück der größten Zahl)</text>
</g>
<!-- P1 -->
<g id="node2" class="node">
<title>P1</title>
<path fill="#aed6f1" stroke="black" d="M462.62,-271C462.62,-271 369.38,-271 369.38,-271 363.38,-271 357.38,-265 357.38,-259 357.38,-259 357.38,-247 357.38,-247 357.38,-241 363.38,-235 369.38,-235 369.38,-235 462.62,-235 462.62,-235 468.62,-235 474.62,-241 474.62,-247 474.62,-247 474.62,-259 474.62,-259 474.62,-265 468.62,-271 462.62,-271"/>
<text text-anchor="middle" x="416" y="-256.05" font-family="Arial" font-size="11.00">Konsequenzprinzip</text>
<text text-anchor="middle" x="416" y="-242.55" font-family="Arial" font-size="11.00">(Folgen statt Absicht)</text>
</g>
<!-- U&#45;&gt;P1 -->
<g id="edge10" class="edge">
<title>U&#45;&gt;P1</title>
<path fill="none" stroke="black" d="M488.24,-340.77C474.41,-324.16 453.56,-299.12 437.81,-280.2"/>
<polygon fill="black" stroke="black" points="440.6,-278.07 431.51,-272.63 435.22,-282.55 440.6,-278.07"/>
</g>
<!-- P2 -->
<g id="node3" class="node">
<title>P2</title>
<path fill="#aed6f1" stroke="black" d="M426.75,-198C426.75,-198 331.25,-198 331.25,-198 325.25,-198 319.25,-192 319.25,-186 319.25,-186 319.25,-174 319.25,-174 319.25,-168 325.25,-162 331.25,-162 331.25,-162 426.75,-162 426.75,-162 432.75,-162 438.75,-168 438.75,-174 438.75,-174 438.75,-186 438.75,-186 438.75,-192 432.75,-198 426.75,-198"/>
<text text-anchor="middle" x="379" y="-183.05" font-family="Arial" font-size="11.00">Utilitätsprinzip</text>
<text text-anchor="middle" x="379" y="-169.55" font-family="Arial" font-size="11.00">(Nutzenmaximierung)</text>
</g>
<!-- U&#45;&gt;P2 -->
<g id="edge11" class="edge">
<title>U&#45;&gt;P2</title>
<path fill="none" stroke="black" d="M406.66,-344.2C383.79,-336.05 362,-323.32 348,-303.5 327.89,-275.03 344.69,-234.7 360.33,-208.21"/>
<polygon fill="black" stroke="black" points="363.29,-210.07 365.6,-199.74 357.35,-206.37 363.29,-210.07"/>
</g>
<!-- P3 -->
<g id="node4" class="node">
<title>P3</title>
<path fill="#aed6f1" stroke="black" d="M420.75,-125C420.75,-125 337.25,-125 337.25,-125 331.25,-125 325.25,-119 325.25,-113 325.25,-113 325.25,-101 325.25,-101 325.25,-95 331.25,-89 337.25,-89 337.25,-89 420.75,-89 420.75,-89 426.75,-89 432.75,-95 432.75,-101 432.75,-101 432.75,-113 432.75,-113 432.75,-119 426.75,-125 420.75,-125"/>
<text text-anchor="middle" x="379" y="-110.05" font-family="Arial" font-size="11.00">Hedonismusprinzip</text>
<text text-anchor="middle" x="379" y="-96.55" font-family="Arial" font-size="11.00">(Freude vs. Leid)</text>
</g>
<!-- U&#45;&gt;P3 -->
<g id="edge12" class="edge">
<title>U&#45;&gt;P3</title>
<path fill="none" stroke="black" d="M406.99,-355.51C307.36,-351.44 158.74,-342.38 105,-323.5 89.88,-318.19 82.56,-317.63 75,-303.5 40.73,-239.46 78.67,-191.28 141,-154 193.61,-122.54 263.4,-111.99 313.79,-108.73"/>
<polygon fill="black" stroke="black" points="313.89,-112.23 323.68,-108.19 313.5,-105.25 313.89,-112.23"/>
</g>
<!-- P4 -->
<g id="node5" class="node">
<title>P4</title>
<path fill="#aed6f1" stroke="black" d="M465.25,-52C465.25,-52 318.75,-52 318.75,-52 312.75,-52 306.75,-46 306.75,-40 306.75,-40 306.75,-28 306.75,-28 306.75,-22 312.75,-16 318.75,-16 318.75,-16 465.25,-16 465.25,-16 471.25,-16 477.25,-22 477.25,-28 477.25,-28 477.25,-40 477.25,-40 477.25,-46 471.25,-52 465.25,-52"/>
<text text-anchor="middle" x="392" y="-37.05" font-family="Arial" font-size="11.00">Allgemeinheitsprinzip</text>
<text text-anchor="middle" x="392" y="-23.55" font-family="Arial" font-size="11.00">(Wohlergehen aller Betroffenen)</text>
</g>
<!-- U&#45;&gt;P4 -->
<g id="edge13" class="edge">
<title>U&#45;&gt;P4</title>
<path fill="none" stroke="black" d="M407.1,-357.8C299.76,-355.77 133.35,-348.51 76,-323.5 34.04,-305.2 0,-299.77 0,-254 0,-254 0,-254 0,-106 0,-76.09 179,-54.18 295.08,-43.12"/>
<polygon fill="black" stroke="black" points="295.32,-46.61 304.95,-42.19 294.67,-39.64 295.32,-46.61"/>
</g>
<!-- Bentham -->
<g id="node6" class="node">
<title>Bentham</title>
<path fill="#abebc6" stroke="black" d="M734.38,-271C734.38,-271 615.62,-271 615.62,-271 609.62,-271 603.62,-265 603.62,-259 603.62,-259 603.62,-247 603.62,-247 603.62,-241 609.62,-235 615.62,-235 615.62,-235 734.38,-235 734.38,-235 740.38,-235 746.38,-241 746.38,-247 746.38,-247 746.38,-259 746.38,-259 746.38,-265 740.38,-271 734.38,-271"/>
<text text-anchor="middle" x="675" y="-256.05" font-family="Arial" font-size="11.00">Jeremy Bentham</text>
<text text-anchor="middle" x="675" y="-242.55" font-family="Arial" font-size="11.00">(Quantitativ / Glückskalkül)</text>
</g>
<!-- U&#45;&gt;Bentham -->
<g id="edge14" class="edge">
<title>U&#45;&gt;Bentham</title>
<path fill="none" stroke="black" d="M533.93,-340.68C543.3,-335.22 553.6,-329.16 563,-323.5 588.16,-308.36 616.25,-290.93 638,-277.31"/>
<polygon fill="black" stroke="black" points="639.62,-280.43 646.23,-272.15 635.9,-274.5 639.62,-280.43"/>
<text text-anchor="middle" x="599.82" y="-314" font-family="Arial" font-size="10.00">Vertreter</text>
</g>
<!-- Mill -->
<g id="node7" class="node">
<title>Mill</title>
<path fill="#abebc6" stroke="black" d="M733.62,-198C733.62,-198 604.38,-198 604.38,-198 598.38,-198 592.38,-192 592.38,-186 592.38,-186 592.38,-174 592.38,-174 592.38,-168 598.38,-162 604.38,-162 604.38,-162 733.62,-162 733.62,-162 739.62,-162 745.62,-168 745.62,-174 745.62,-174 745.62,-186 745.62,-186 745.62,-192 739.62,-198 733.62,-198"/>
<text text-anchor="middle" x="669" y="-183.05" font-family="Arial" font-size="11.00">John Stuart Mill</text>
<text text-anchor="middle" x="669" y="-169.55" font-family="Arial" font-size="11.00">(Qualitativ / Geistige Freude)</text>
</g>
<!-- U&#45;&gt;Mill -->
<g id="edge15" class="edge">
<title>U&#45;&gt;Mill</title>
<path fill="none" stroke="black" d="M510.16,-340.72C523.25,-308.52 550.41,-243.1 558.25,-235 571.12,-221.7 587.95,-211.22 604.58,-203.17"/>
<polygon fill="black" stroke="black" points="605.86,-206.44 613.5,-199.1 602.95,-200.07 605.86,-206.44"/>
<text text-anchor="middle" x="576.62" y="-249.5" font-family="Arial" font-size="10.00">Vertreter</text>
</g>
<!-- Regel -->
<g id="node8" class="node">
<title>Regel</title>
<path fill="#d5f5e3" stroke="black" d="M714.88,-125C714.88,-125 623.12,-125 623.12,-125 617.12,-125 611.12,-119 611.12,-113 611.12,-113 611.12,-101 611.12,-101 611.12,-95 617.12,-89 623.12,-89 623.12,-89 714.88,-89 714.88,-89 720.88,-89 726.88,-95 726.88,-101 726.88,-101 726.88,-113 726.88,-113 726.88,-119 720.88,-125 714.88,-125"/>
<text text-anchor="middle" x="669" y="-110.05" font-family="Arial" font-size="11.00">Regelutilitarismus</text>
<text text-anchor="middle" x="669" y="-96.55" font-family="Arial" font-size="11.00">(Nutzen von Regeln)</text>
</g>
<!-- U&#45;&gt;Regel -->
<g id="edge18" class="edge">
<title>U&#45;&gt;Regel</title>
<path fill="none" stroke="black" d="M503.05,-340.58C503.71,-315.87 507.08,-270.38 522,-235 539.51,-193.47 548.77,-183.32 583,-154 593.35,-145.14 605.69,-137.3 617.75,-130.72"/>
<polygon fill="black" stroke="black" points="619.17,-133.93 626.41,-126.2 615.93,-127.72 619.17,-133.93"/>
</g>
<!-- Negativ -->
<g id="node9" class="node">
<title>Negativ</title>
<path fill="#d5f5e3" stroke="black" d="M730,-52C730,-52 630,-52 630,-52 624,-52 618,-46 618,-40 618,-40 618,-28 618,-28 618,-22 624,-16 630,-16 630,-16 730,-16 730,-16 736,-16 742,-22 742,-28 742,-28 742,-40 742,-40 742,-46 736,-52 730,-52"/>
<text text-anchor="middle" x="680" y="-37.05" font-family="Arial" font-size="11.00">Negativer Utilitarismus</text>
<text text-anchor="middle" x="680" y="-23.55" font-family="Arial" font-size="11.00">(Leidvermeidung Prio)</text>
</g>
<!-- U&#45;&gt;Negativ -->
<g id="edge19" class="edge">
<title>U&#45;&gt;Negativ</title>
<path fill="none" stroke="black" d="M599.25,-353.61C736.05,-345.81 973.59,-328.81 1004,-303.5 1021.77,-288.71 1020,-277.12 1020,-254 1020,-254 1020,-254 1020,-106 1020,-52 853.59,-38.81 753.61,-35.75"/>
<polygon fill="black" stroke="black" points="753.97,-32.26 743.87,-35.49 753.77,-39.26 753.97,-32.26"/>
</g>
<!-- HO -->
<g id="node10" class="node">
<title>HO</title>
<path fill="#fcf3cf" stroke="black" d="M270.62,-271C270.62,-271 165.38,-271 165.38,-271 159.38,-271 153.38,-265 153.38,-259 153.38,-259 153.38,-247 153.38,-247 153.38,-241 159.38,-235 165.38,-235 165.38,-235 270.62,-235 270.62,-235 276.62,-235 282.62,-241 282.62,-247 282.62,-247 282.62,-259 282.62,-259 282.62,-265 276.62,-271 270.62,-271"/>
<text text-anchor="middle" x="218" y="-256.05" font-family="Arial" font-size="11.00">Homo Oeconomicus</text>
<text text-anchor="middle" x="218" y="-242.55" font-family="Arial" font-size="11.00">(Rationaler Maximierer)</text>
</g>
<!-- U&#45;&gt;HO -->
<g id="edge20" class="edge">
<title>U&#45;&gt;HO</title>
<path fill="none" stroke="black" d="M406.9,-353.84C347.95,-349.31 279.26,-340.49 255,-323.5 240.9,-313.63 231.72,-296.66 226.03,-281.95"/>
<polygon fill="black" stroke="black" points="229.42,-281.04 222.83,-272.74 222.81,-283.34 229.42,-281.04"/>
<text text-anchor="middle" x="285" y="-314" font-family="Arial" font-size="10.00">Menschenbild</text>
</g>
<!-- Welfare -->
<g id="node11" class="node">
<title>Welfare</title>
<path fill="#fcf3cf" stroke="black" d="M264.5,-198C264.5,-198 167.5,-198 167.5,-198 161.5,-198 155.5,-192 155.5,-186 155.5,-186 155.5,-174 155.5,-174 155.5,-168 161.5,-162 167.5,-162 167.5,-162 264.5,-162 264.5,-162 270.5,-162 276.5,-168 276.5,-174 276.5,-174 276.5,-186 276.5,-186 276.5,-192 270.5,-198 264.5,-198"/>
<text text-anchor="middle" x="216" y="-183.05" font-family="Arial" font-size="11.00">Wohlfahrtstheorie</text>
<text text-anchor="middle" x="216" y="-169.55" font-family="Arial" font-size="11.00">(Aggregierter Nutzen)</text>
</g>
<!-- U&#45;&gt;Welfare -->
<g id="edge21" class="edge">
<title>U&#45;&gt;Welfare</title>
<path fill="none" stroke="black" d="M407.1,-352.21C292.44,-343.7 113.36,-326.84 93,-303.5 72.99,-280.56 76.35,-260.49 93,-235 104.95,-216.71 124.62,-204.57 144.76,-196.54"/>
<polygon fill="black" stroke="black" points="145.68,-199.93 153.88,-193.22 143.28,-193.35 145.68,-199.93"/>
<text text-anchor="middle" x="118.5" y="-249.5" font-family="Arial" font-size="10.00">Anwendung</text>
</g>
<!-- Minority -->
<g id="node12" class="node">
<title>Minority</title>
<path fill="#fadbd8" stroke="black" d="M980.25,-271C980.25,-271 851.75,-271 851.75,-271 845.75,-271 839.75,-265 839.75,-259 839.75,-259 839.75,-247 839.75,-247 839.75,-241 845.75,-235 851.75,-235 851.75,-235 980.25,-235 980.25,-235 986.25,-235 992.25,-241 992.25,-247 992.25,-247 992.25,-259 992.25,-259 992.25,-265 986.25,-271 980.25,-271"/>
<text text-anchor="middle" x="916" y="-256.05" font-family="Arial" font-size="11.00">Opferung von Minderheiten?</text>
<text text-anchor="middle" x="916" y="-242.55" font-family="Arial" font-size="11.00">(Rechte vs. Nutzen)</text>
</g>
<!-- U&#45;&gt;Minority -->
<g id="edge22" class="edge">
<title>U&#45;&gt;Minority</title>
<path fill="none" stroke="#e74c3c" d="M599.13,-353.84C679.12,-348.91 786.1,-339.56 826,-323.5 850.8,-313.52 874.54,-294.65 891.41,-279.09"/>
<polygon fill="#e74c3c" stroke="#e74c3c" points="893.64,-281.8 898.47,-272.37 888.82,-276.73 893.64,-281.8"/>
</g>
<!-- Info -->
<g id="node13" class="node">
<title>Info</title>
<path fill="#fadbd8" stroke="black" d="M968.38,-198C968.38,-198 855.62,-198 855.62,-198 849.62,-198 843.62,-192 843.62,-186 843.62,-186 843.62,-174 843.62,-174 843.62,-168 849.62,-162 855.62,-162 855.62,-162 968.38,-162 968.38,-162 974.38,-162 980.38,-168 980.38,-174 980.38,-174 980.38,-186 980.38,-186 980.38,-192 974.38,-198 968.38,-198"/>
<text text-anchor="middle" x="912" y="-183.05" font-family="Arial" font-size="11.00">Informationsüberlastung</text>
<text text-anchor="middle" x="912" y="-169.55" font-family="Arial" font-size="11.00">(Komplexe Kausalketten)</text>
</g>
<!-- U&#45;&gt;Info -->
<g id="edge23" class="edge">
<title>U&#45;&gt;Info</title>
<path fill="none" stroke="#e74c3c" d="M599.24,-356.38C669.86,-353.06 758.39,-344.66 788,-323.5 823.58,-298.08 802.25,-267.95 831,-235 841.46,-223.01 855.19,-212.54 868.35,-204.09"/>
<polygon fill="#e74c3c" stroke="#e74c3c" points="869.81,-207.3 876.5,-199.09 866.15,-201.33 869.81,-207.3"/>
</g>
<!-- Overload -->
<g id="node14" class="node">
<title>Overload</title>
<path fill="#fadbd8" stroke="black" d="M971.75,-125C971.75,-125 852.25,-125 852.25,-125 846.25,-125 840.25,-119 840.25,-113 840.25,-113 840.25,-101 840.25,-101 840.25,-95 846.25,-89 852.25,-89 852.25,-89 971.75,-89 971.75,-89 977.75,-89 983.75,-95 983.75,-101 983.75,-101 983.75,-113 983.75,-113 983.75,-119 977.75,-125 971.75,-125"/>
<text text-anchor="middle" x="912" y="-110.05" font-family="Arial" font-size="11.00">Psychische Überforderung</text>
<text text-anchor="middle" x="912" y="-96.55" font-family="Arial" font-size="11.00">(Entfremdung)</text>
</g>
<!-- U&#45;&gt;Overload -->
<g id="edge24" class="edge">
<title>U&#45;&gt;Overload</title>
<path fill="none" stroke="#e74c3c" d="M599.11,-346.43C660.51,-337.11 733.11,-322.58 758,-303.5 817.33,-258.04 783.84,-208.48 835,-154 843.24,-145.23 853.52,-137.56 863.87,-131.12"/>
<polygon fill="#e74c3c" stroke="#e74c3c" points="865.57,-134.18 872.43,-126.11 862.03,-128.14 865.57,-134.18"/>
</g>
<!-- P1&#45;&gt;P2 -->
<!-- P2&#45;&gt;P3 -->
<!-- P3&#45;&gt;P4 -->
<!-- P3&#45;&gt;Bentham -->
<g id="edge16" class="edge">
<title>P3&#45;&gt;Bentham</title>
<path fill="none" stroke="black" stroke-dasharray="1,5" d="M433.01,-112.72C534.49,-121.85 744.44,-142.07 755,-154 767.96,-168.64 764.18,-180.73 755,-198 748.36,-210.49 737.4,-220.62 725.69,-228.58"/>
<polygon fill="black" stroke="black" points="724.11,-225.44 717.49,-233.7 727.82,-231.37 724.11,-225.44"/>
</g>
<!-- P3&#45;&gt;Mill -->
<g id="edge17" class="edge">
<title>P3&#45;&gt;Mill</title>
<path fill="none" stroke="black" stroke-dasharray="1,5" d="M433.17,-121.26C476.35,-131.83 537.52,-146.81 586.74,-158.86"/>
<polygon fill="black" stroke="black" points="585.67,-162.2 596.22,-161.18 587.34,-155.4 585.67,-162.2"/>
</g>
<!-- Bentham&#45;&gt;Mill -->
<!-- Mill&#45;&gt;Regel -->
<!-- Regel&#45;&gt;Negativ -->
<!-- HO&#45;&gt;Welfare -->
<!-- Minority&#45;&gt;Info -->
<!-- Info&#45;&gt;Overload -->
</g>
</svg>
