<?xml version="1.0" encoding="UTF-8" standalone="no"?>
<!DOCTYPE svg PUBLIC "-//W3C//DTD SVG 1.1//EN"
 "http://www.w3.org/Graphics/SVG/1.1/DTD/svg11.dtd">
<!-- Generated by graphviz version 12.2.1 (20241206.2353)
 -->
<!-- Pages: 1 -->
<svg width="696pt" height="414pt"
 viewBox="0.00 0.00 696.00 413.50" xmlns="http://www.w3.org/2000/svg" xmlns:xlink="http://www.w3.org/1999/xlink">
<g id="graph0" class="graph" transform="scale(1 1) rotate(0) translate(4 409.5)">
<polygon fill="white" stroke="none" points="-4,4 -4,-409.5 692,-409.5 692,4 -4,4"/>
<g id="clust1" class="cluster">
<title>cluster_hobbes</title>
<polygon fill="#fadbd8" stroke="#fadbd8" points="8,-8 8,-313.5 158,-313.5 158,-8 8,-8"/>
<text text-anchor="middle" x="83" y="-296.2" font-family="Times New Roman,serif" font-size="14.00">Thomas Hobbes</text>
</g>
<g id="clust2" class="cluster">
<title>cluster_rawls</title>
<polygon fill="#d4e6f1" stroke="#d4e6f1" points="170,-8 170,-313.5 332,-313.5 332,-8 170,-8"/>
<text text-anchor="middle" x="251" y="-296.2" font-family="Times New Roman,serif" font-size="14.00">John Rawls</text>
</g>
<g id="clust3" class="cluster">
<title>cluster_gauthier</title>
<polygon fill="#d5f5e3" stroke="#d5f5e3" points="346,-117 346,-313.5 506,-313.5 506,-117 346,-117"/>
<text text-anchor="middle" x="426" y="-296.2" font-family="Times New Roman,serif" font-size="14.00">David Gauthier</text>
</g>
<g id="clust4" class="cluster">
<title>cluster_scanlon</title>
<polygon fill="#fcf3cf" stroke="#fcf3cf" points="514,-117 514,-313.5 680,-313.5 680,-117 514,-117"/>
<text text-anchor="middle" x="597" y="-296.2" font-family="Times New Roman,serif" font-size="14.00">T. M. Scanlon</text>
</g>
<!-- VT -->
<g id="node1" class="node">
<title>VT</title>
<path fill="#2c3e50" stroke="black" stroke-width="2" d="M367.5,-405.5C367.5,-405.5 270.5,-405.5 270.5,-405.5 264.5,-405.5 258.5,-399.5 258.5,-393.5 258.5,-393.5 258.5,-381.5 258.5,-381.5 258.5,-375.5 264.5,-369.5 270.5,-369.5 270.5,-369.5 367.5,-369.5 367.5,-369.5 373.5,-369.5 379.5,-375.5 379.5,-381.5 379.5,-381.5 379.5,-393.5 379.5,-393.5 379.5,-399.5 373.5,-405.5 367.5,-405.5"/>
<text text-anchor="middle" x="319" y="-390.75" font-family="Verdana" font-size="10.00" fill="white">VERTRAGSTHEORIEN</text>
<text text-anchor="middle" x="319" y="-378" font-family="Verdana" font-size="10.00" fill="white">(Kontraktualismus)</text>
</g>
<!-- Natur -->
<g id="node2" class="node">
<title>Natur</title>
<path fill="#e6b0aa" stroke="black" d="M137.5,-281C137.5,-281 28.5,-281 28.5,-281 22.5,-281 16.5,-275 16.5,-269 16.5,-269 16.5,-257 16.5,-257 16.5,-251 22.5,-245 28.5,-245 28.5,-245 137.5,-245 137.5,-245 143.5,-245 149.5,-251 149.5,-257 149.5,-257 149.5,-269 149.5,-269 149.5,-275 143.5,-281 137.5,-281"/>
<text text-anchor="middle" x="83" y="-266.25" font-family="Verdana" font-size="10.00">Naturzustand</text>
<text text-anchor="middle" x="83" y="-253.5" font-family="Verdana" font-size="10.00">(Krieg aller gegen alle)</text>
</g>
<!-- VT&#45;&gt;Natur -->
<g id="edge13" class="edge">
<title>VT&#45;&gt;Natur</title>
<path fill="none" stroke="#7f7f7f" d="M275.62,-368.59C243.75,-354.86 199.78,-334.72 163,-313.5 148.66,-305.22 133.13,-295.74 119.6,-287.3"/>
<polygon fill="#7f7f7f" stroke="#7f7f7f" points="121.76,-284.52 111.43,-282.18 118.04,-290.45 121.76,-284.52"/>
<text text-anchor="middle" x="234.03" y="-324.95" font-family="Verdana" font-size="9.00">Motiv: Sicherheit</text>
</g>
<!-- Schleier -->
<g id="node5" class="node">
<title>Schleier</title>
<polygon fill="#aed6f1" stroke="black" stroke-width="2" points="323.88,-281 178.12,-281 178.12,-245 323.88,-245 323.88,-281"/>
<text text-anchor="middle" x="251" y="-266.25" font-family="Verdana" font-size="10.00">Schleier des Nichtwissens</text>
<text text-anchor="middle" x="251" y="-253.5" font-family="Verdana" font-size="10.00">(Faire Wahl)</text>
</g>
<!-- VT&#45;&gt;Schleier -->
<g id="edge14" class="edge">
<title>VT&#45;&gt;Schleier</title>
<path fill="none" stroke="#7f7f7f" d="M309.11,-368.69C297.82,-348.34 279.21,-314.82 266.1,-291.2"/>
<polygon fill="#7f7f7f" stroke="#7f7f7f" points="269.33,-289.81 261.41,-282.76 263.21,-293.2 269.33,-289.81"/>
<text text-anchor="middle" x="322.45" y="-324.95" font-family="Verdana" font-size="9.00">Motiv: Fairness</text>
</g>
<!-- Eigen -->
<g id="node8" class="node">
<title>Eigen</title>
<path fill="#abebc6" stroke="black" d="M486.12,-281C486.12,-281 365.88,-281 365.88,-281 359.88,-281 353.88,-275 353.88,-269 353.88,-269 353.88,-257 353.88,-257 353.88,-251 359.88,-245 365.88,-245 365.88,-245 486.12,-245 486.12,-245 492.12,-245 498.12,-251 498.12,-257 498.12,-257 498.12,-269 498.12,-269 498.12,-275 492.12,-281 486.12,-281"/>
<text text-anchor="middle" x="426" y="-259.88" font-family="Verdana" font-size="10.00">Rationales Eigeninteresse</text>
</g>
<!-- VT&#45;&gt;Eigen -->
<g id="edge15" class="edge">
<title>VT&#45;&gt;Eigen</title>
<path fill="none" stroke="#7f7f7f" d="M334.56,-368.69C352.65,-347.98 382.67,-313.61 403.35,-289.94"/>
<polygon fill="#7f7f7f" stroke="#7f7f7f" points="405.83,-292.41 409.77,-282.58 400.56,-287.81 405.83,-292.41"/>
<text text-anchor="middle" x="411.33" y="-324.95" font-family="Verdana" font-size="9.00">Motiv: Strategie</text>
</g>
<!-- Ablehnung -->
<g id="node10" class="node">
<title>Ablehnung</title>
<polygon fill="#f9e79f" stroke="black" stroke-width="2" points="657.88,-281 536.12,-281 536.12,-245 657.88,-245 657.88,-281"/>
<text text-anchor="middle" x="597" y="-266.25" font-family="Verdana" font-size="10.00">Nicht&#45;Ablehnbarkeit</text>
<text text-anchor="middle" x="597" y="-253.5" font-family="Verdana" font-size="10.00">(Vernünftige Gründe)</text>
</g>
<!-- VT&#45;&gt;Ablehnung -->
<g id="edge16" class="edge">
<title>VT&#45;&gt;Ablehnung</title>
<path fill="none" stroke="#7f7f7f" d="M374.4,-368.51C413.79,-355.04 467.55,-335.24 513,-313.5 529.13,-305.78 546.25,-296.01 560.79,-287.19"/>
<polygon fill="#7f7f7f" stroke="#7f7f7f" points="562.44,-290.28 569.12,-282.06 558.77,-284.32 562.44,-290.28"/>
<text text-anchor="middle" x="540.97" y="-324.95" font-family="Verdana" font-size="9.00">Motiv: Rechtfertigung</text>
</g>
<!-- Leviathan -->
<g id="node3" class="node">
<title>Leviathan</title>
<polygon fill="#e6b0aa" stroke="black" stroke-width="2" points="139.62,-161 16.38,-161 16.38,-125 139.62,-125 139.62,-161"/>
<text text-anchor="middle" x="78" y="-146.25" font-family="Verdana" font-size="10.00">Leviathan</text>
<text text-anchor="middle" x="78" y="-133.5" font-family="Verdana" font-size="10.00">(Absoluter Souverän)</text>
</g>
<!-- Natur&#45;&gt;Leviathan -->
<!-- Natur&#45;&gt;Leviathan -->
<g id="edge3" class="edge">
<title>Natur&#45;&gt;Leviathan</title>
<path fill="none" stroke="#7f7f7f" d="M82.26,-244.59C81.46,-225.68 80.17,-195.17 79.22,-172.7"/>
<polygon fill="#7f7f7f" stroke="#7f7f7f" points="82.73,-172.84 78.8,-162.99 75.73,-173.13 82.73,-172.84"/>
<text text-anchor="middle" x="116.65" y="-200.45" font-family="Verdana" font-size="9.00">Rationale Flucht</text>
</g>
<!-- Sanktion -->
<g id="node4" class="node">
<title>Sanktion</title>
<path fill="#f2d7d5" stroke="black" d="M120.5,-52C120.5,-52 35.5,-52 35.5,-52 29.5,-52 23.5,-46 23.5,-40 23.5,-40 23.5,-28 23.5,-28 23.5,-22 29.5,-16 35.5,-16 35.5,-16 120.5,-16 120.5,-16 126.5,-16 132.5,-22 132.5,-28 132.5,-28 132.5,-40 132.5,-40 132.5,-46 126.5,-52 120.5,-52"/>
<text text-anchor="middle" x="78" y="-37.25" font-family="Verdana" font-size="10.00">Sicherung durch</text>
<text text-anchor="middle" x="78" y="-24.5" font-family="Verdana" font-size="10.00">Zwang &amp; Kontrolle</text>
</g>
<!-- Leviathan&#45;&gt;Sanktion -->
<!-- Leviathan&#45;&gt;Sanktion -->
<g id="edge4" class="edge">
<title>Leviathan&#45;&gt;Sanktion</title>
<path fill="none" stroke="#7f7f7f" d="M86.24,-124.81C89.15,-108.27 89.65,-82.98 87.74,-63.44"/>
<polygon fill="#7f7f7f" stroke="#7f7f7f" points="91.22,-63.1 86.43,-53.65 84.28,-64.02 91.22,-63.1"/>
</g>
<!-- Maximin -->
<g id="node6" class="node">
<title>Maximin</title>
<path fill="#aed6f1" stroke="black" d="M312.25,-161C312.25,-161 189.75,-161 189.75,-161 183.75,-161 177.75,-155 177.75,-149 177.75,-149 177.75,-137 177.75,-137 177.75,-131 183.75,-125 189.75,-125 189.75,-125 312.25,-125 312.25,-125 318.25,-125 324.25,-131 324.25,-137 324.25,-137 324.25,-149 324.25,-149 324.25,-155 318.25,-161 312.25,-161"/>
<text text-anchor="middle" x="251" y="-146.25" font-family="Verdana" font-size="10.00">Maximin&#45;Regel</text>
<text text-anchor="middle" x="251" y="-133.5" font-family="Verdana" font-size="10.00">(Schutz der Schwächsten)</text>
</g>
<!-- Schleier&#45;&gt;Maximin -->
<!-- Schleier&#45;&gt;Maximin -->
<g id="edge7" class="edge">
<title>Schleier&#45;&gt;Maximin</title>
<path fill="none" stroke="#7f7f7f" d="M258.98,-244.59C262.25,-225.68 262.75,-195.17 260.48,-172.7"/>
<polygon fill="#7f7f7f" stroke="#7f7f7f" points="263.98,-172.44 259.2,-162.98 257.04,-173.36 263.98,-172.44"/>
</g>
<!-- Prinzipien -->
<g id="node7" class="node">
<title>Prinzipien</title>
<path fill="#d6eaf8" stroke="black" d="M286.75,-52C286.75,-52 215.25,-52 215.25,-52 209.25,-52 203.25,-46 203.25,-40 203.25,-40 203.25,-28 203.25,-28 203.25,-22 209.25,-16 215.25,-16 215.25,-16 286.75,-16 286.75,-16 292.75,-16 298.75,-22 298.75,-28 298.75,-28 298.75,-40 298.75,-40 298.75,-46 292.75,-52 286.75,-52"/>
<text text-anchor="middle" x="251" y="-37.25" font-family="Verdana" font-size="10.00">Freiheits&#45; &amp;</text>
<text text-anchor="middle" x="251" y="-24.5" font-family="Verdana" font-size="10.00">Differenzprinzip</text>
</g>
<!-- Maximin&#45;&gt;Prinzipien -->
<!-- Maximin&#45;&gt;Prinzipien -->
<g id="edge8" class="edge">
<title>Maximin&#45;&gt;Prinzipien</title>
<path fill="none" stroke="#7f7f7f" d="M259.24,-124.81C262.15,-108.27 262.65,-82.98 260.74,-63.44"/>
<polygon fill="#7f7f7f" stroke="#7f7f7f" points="264.22,-63.1 259.43,-53.65 257.28,-64.02 264.22,-63.1"/>
</g>
<!-- Koop -->
<g id="node9" class="node">
<title>Koop</title>
<polygon fill="#abebc6" stroke="black" stroke-width="2" points="466.38,-161 353.62,-161 353.62,-125 466.38,-125 466.38,-161"/>
<text text-anchor="middle" x="410" y="-146.25" font-family="Verdana" font-size="10.00">Moral als</text>
<text text-anchor="middle" x="410" y="-133.5" font-family="Verdana" font-size="10.00">Kooperationsvorteil</text>
</g>
<!-- Eigen&#45;&gt;Koop -->
<!-- Eigen&#45;&gt;Koop -->
<g id="edge10" class="edge">
<title>Eigen&#45;&gt;Koop</title>
<path fill="none" stroke="#7f7f7f" d="M422.46,-244.87C420.42,-234.52 417.93,-221.05 416.25,-209 414.6,-197.21 413.25,-184.15 412.24,-172.86"/>
<polygon fill="#7f7f7f" stroke="#7f7f7f" points="415.73,-172.6 411.39,-162.94 408.75,-173.2 415.73,-172.6"/>
<text text-anchor="middle" x="461.62" y="-200.45" font-family="Verdana" font-size="9.00">Langfristiger Nutzen</text>
</g>
<!-- Respekt -->
<g id="node11" class="node">
<title>Respekt</title>
<path fill="#f9e79f" stroke="black" d="M659.75,-161C659.75,-161 534.25,-161 534.25,-161 528.25,-161 522.25,-155 522.25,-149 522.25,-149 522.25,-137 522.25,-137 522.25,-131 528.25,-125 534.25,-125 534.25,-125 659.75,-125 659.75,-125 665.75,-125 671.75,-131 671.75,-137 671.75,-137 671.75,-149 671.75,-149 671.75,-155 665.75,-161 659.75,-161"/>
<text text-anchor="middle" x="597" y="-146.25" font-family="Verdana" font-size="10.00">Gegenseitige Anerkennung</text>
<text text-anchor="middle" x="597" y="-133.5" font-family="Verdana" font-size="10.00">&amp; Rechtfertigung</text>
</g>
<!-- Ablehnung&#45;&gt;Respekt -->
<!-- Ablehnung&#45;&gt;Respekt -->
<g id="edge12" class="edge">
<title>Ablehnung&#45;&gt;Respekt</title>
<path fill="none" stroke="#7f7f7f" d="M604.98,-244.59C608.25,-225.68 608.75,-195.17 606.48,-172.7"/>
<polygon fill="#7f7f7f" stroke="#7f7f7f" points="609.98,-172.44 605.2,-162.98 603.04,-173.36 609.98,-172.44"/>
</g>
</g>
</svg>
