<?xml version="1.0" encoding="UTF-8" standalone="no"?>
<!DOCTYPE svg PUBLIC "-//W3C//DTD SVG 1.1//EN"
 "http://www.w3.org/Graphics/SVG/1.1/DTD/svg11.dtd">
<!-- Generated by graphviz version 12.2.1 (20241206.2353)
 -->
<!-- Pages: 1 -->
<svg width="864pt" height="328pt"
 viewBox="0.00 0.00 864.00 328.15" xmlns="http://www.w3.org/2000/svg" xmlns:xlink="http://www.w3.org/1999/xlink">
<g id="graph0" class="graph" transform="scale(0.948408 0.948408) rotate(0) translate(4 342)">
<polygon fill="white" stroke="none" points="-4,4 -4,-342 907,-342 907,4 -4,4"/>
<g id="clust1" class="cluster">
<title>cluster_foundation</title>
<polygon fill="none" stroke="#3498db" stroke-dasharray="5,2" points="8,-8 8,-264 232,-264 232,-8 8,-8"/>
<text text-anchor="middle" x="120" y="-246.7" font-family="Times New Roman,serif" font-size="14.00">Das moralische Fundament</text>
</g>
<g id="clust2" class="cluster">
<title>cluster_ki</title>
<polygon fill="none" stroke="#f1c40f" stroke-dasharray="5,2" points="438,-8 438,-264 694,-264 694,-8 438,-8"/>
<text text-anchor="middle" x="566" y="-246.7" font-family="Times New Roman,serif" font-size="14.00">Der Kategorische Imperativ (Prüfverfahren)</text>
</g>
<g id="clust3" class="cluster">
<title>cluster_duties</title>
<polygon fill="none" stroke="#27ae60" stroke-dasharray="5,2" points="240,-8 240,-157.5 430,-157.5 430,-8 240,-8"/>
<text text-anchor="middle" x="335" y="-140.2" font-family="Times New Roman,serif" font-size="14.00">Einteilung der Pflichten</text>
</g>
<g id="clust4" class="cluster">
<title>cluster_critique</title>
<polygon fill="none" stroke="#e74c3c" stroke-dasharray="5,2" points="724,-8 724,-264 895,-264 895,-8 724,-8"/>
<text text-anchor="middle" x="809.5" y="-246.7" font-family="Times New Roman,serif" font-size="14.00">Herausforderungen &amp; Kritik</text>
</g>
<!-- DEO -->
<g id="node1" class="node">
<title>DEO</title>
<path fill="#2c3e50" stroke="black" stroke-width="2" d="M612.12,-338C612.12,-338 539.88,-338 539.88,-338 533.88,-338 527.88,-332 527.88,-326 527.88,-326 527.88,-314 527.88,-314 527.88,-308 533.88,-302 539.88,-302 539.88,-302 612.12,-302 612.12,-302 618.12,-302 624.12,-308 624.12,-314 624.12,-314 624.12,-326 624.12,-326 624.12,-332 618.12,-338 612.12,-338"/>
<text text-anchor="middle" x="576" y="-323.05" font-family="Arial" font-size="11.00" fill="white">DEONTOLOGIE</text>
<text text-anchor="middle" x="576" y="-309.55" font-family="Arial" font-size="11.00" fill="white">(Pflichtenethik)</text>
</g>
<!-- Wille -->
<g id="node2" class="node">
<title>Wille</title>
<path fill="#aed6f1" stroke="black" d="M198.25,-231.5C198.25,-231.5 135.75,-231.5 135.75,-231.5 129.75,-231.5 123.75,-225.5 123.75,-219.5 123.75,-219.5 123.75,-207.5 123.75,-207.5 123.75,-201.5 129.75,-195.5 135.75,-195.5 135.75,-195.5 198.25,-195.5 198.25,-195.5 204.25,-195.5 210.25,-201.5 210.25,-207.5 210.25,-207.5 210.25,-219.5 210.25,-219.5 210.25,-225.5 204.25,-231.5 198.25,-231.5"/>
<text text-anchor="middle" x="167" y="-216.55" font-family="Arial" font-size="11.00">Der Gute Wille</text>
<text text-anchor="middle" x="167" y="-203.05" font-family="Arial" font-size="11.00">(An sich gut)</text>
</g>
<!-- DEO&#45;&gt;Wille -->
<g id="edge8" class="edge">
<title>DEO&#45;&gt;Wille</title>
<path fill="none" stroke="black" d="M526.91,-319.58C439.68,-319.77 261.96,-316.05 210.25,-284 194.79,-274.42 183.98,-257.06 177.04,-242.08"/>
<polygon fill="black" stroke="black" points="180.37,-240.98 173.24,-233.14 173.93,-243.71 180.37,-240.98"/>
<text text-anchor="middle" x="233.12" y="-274.5" font-family="Arial" font-size="10.00">basiert auf</text>
</g>
<!-- Pflicht_Aus -->
<g id="node3" class="node">
<title>Pflicht_Aus</title>
<path fill="#3498db" stroke="black" d="M212.12,-125C212.12,-125 121.88,-125 121.88,-125 115.88,-125 109.88,-119 109.88,-113 109.88,-113 109.88,-101 109.88,-101 109.88,-95 115.88,-89 121.88,-89 121.88,-89 212.12,-89 212.12,-89 218.12,-89 224.12,-95 224.12,-101 224.12,-101 224.12,-113 224.12,-113 224.12,-119 218.12,-125 212.12,-125"/>
<text text-anchor="middle" x="167" y="-110.05" font-family="Arial" font-size="11.00" fill="white">Handeln AUS Pflicht</text>
<text text-anchor="middle" x="167" y="-96.55" font-family="Arial" font-size="11.00" fill="white">(Moralischer Wert)</text>
</g>
<!-- DEO&#45;&gt;Pflicht_Aus -->
<!-- Pflicht_Gem -->
<g id="node4" class="node">
<title>Pflicht_Gem</title>
<path fill="#d6eaf8" stroke="black" d="M211.62,-52C211.62,-52 28.38,-52 28.38,-52 22.38,-52 16.37,-46 16.37,-40 16.37,-40 16.37,-28 16.37,-28 16.37,-22 22.37,-16 28.37,-16 28.37,-16 211.62,-16 211.62,-16 217.62,-16 223.62,-22 223.62,-28 223.62,-28 223.62,-40 223.62,-40 223.62,-46 217.62,-52 211.62,-52"/>
<text text-anchor="middle" x="120" y="-37.05" font-family="Arial" font-size="11.00">Pflichtgemäßes Handeln</text>
<text text-anchor="middle" x="120" y="-23.55" font-family="Arial" font-size="11.00">(Aus Neigung/Vorteil &#45; kein moral. Wert)</text>
</g>
<!-- DEO&#45;&gt;Pflicht_Gem -->
<!-- Gesetz -->
<g id="node5" class="node">
<title>Gesetz</title>
<path fill="#fcf3cf" stroke="black" d="M552.38,-231.5C552.38,-231.5 457.62,-231.5 457.62,-231.5 451.62,-231.5 445.62,-225.5 445.62,-219.5 445.62,-219.5 445.62,-207.5 445.62,-207.5 445.62,-201.5 451.62,-195.5 457.62,-195.5 457.62,-195.5 552.38,-195.5 552.38,-195.5 558.38,-195.5 564.38,-201.5 564.38,-207.5 564.38,-207.5 564.38,-219.5 564.38,-219.5 564.38,-225.5 558.38,-231.5 552.38,-231.5"/>
<text text-anchor="middle" x="505" y="-216.55" font-family="Arial" font-size="11.00">Naturgesetzformel</text>
<text text-anchor="middle" x="505" y="-203.05" font-family="Arial" font-size="11.00">(Allgemeines Gesetz)</text>
</g>
<!-- DEO&#45;&gt;Gesetz -->
<g id="edge13" class="edge">
<title>DEO&#45;&gt;Gesetz</title>
<path fill="none" stroke="black" d="M563.96,-301.27C552.82,-284.89 536.12,-260.3 523.33,-241.47"/>
<polygon fill="black" stroke="black" points="526.23,-239.52 517.72,-233.22 520.44,-243.46 526.23,-239.52"/>
<text text-anchor="middle" x="564.88" y="-274.5" font-family="Arial" font-size="10.00">fordert</text>
</g>
<!-- Mensch -->
<g id="node6" class="node">
<title>Mensch</title>
<path fill="#fcf3cf" stroke="black" d="M661.62,-125C661.62,-125 526.38,-125 526.38,-125 520.38,-125 514.38,-119 514.38,-113 514.38,-113 514.38,-101 514.38,-101 514.38,-95 520.38,-89 526.38,-89 526.38,-89 661.62,-89 661.62,-89 667.62,-89 673.62,-95 673.62,-101 673.62,-101 673.62,-113 673.62,-113 673.62,-119 667.62,-125 661.62,-125"/>
<text text-anchor="middle" x="594" y="-110.05" font-family="Arial" font-size="11.00">Menschheitszweckformel</text>
<text text-anchor="middle" x="594" y="-96.55" font-family="Arial" font-size="11.00">(Menschen nie bloß als Mittel)</text>
</g>
<!-- DEO&#45;&gt;Mensch -->
<g id="edge14" class="edge">
<title>DEO&#45;&gt;Mensch</title>
<path fill="none" stroke="black" d="M580.03,-301.27C581.15,-295.76 582.26,-289.65 583,-284 589.78,-232.13 592.41,-171.1 593.41,-136.24"/>
<polygon fill="black" stroke="black" points="596.9,-136.66 593.66,-126.58 589.9,-136.48 596.9,-136.66"/>
<text text-anchor="middle" x="604.71" y="-210" font-family="Arial" font-size="10.00">fordert</text>
</g>
<!-- Starr -->
<g id="node10" class="node">
<title>Starr</title>
<path fill="#fadbd8" stroke="black" d="M867.88,-231.5C867.88,-231.5 752.12,-231.5 752.12,-231.5 746.12,-231.5 740.12,-225.5 740.12,-219.5 740.12,-219.5 740.12,-207.5 740.12,-207.5 740.12,-201.5 746.12,-195.5 752.12,-195.5 752.12,-195.5 867.88,-195.5 867.88,-195.5 873.88,-195.5 879.88,-201.5 879.88,-207.5 879.88,-207.5 879.88,-219.5 879.88,-219.5 879.88,-225.5 873.88,-231.5 867.88,-231.5"/>
<text text-anchor="middle" x="810" y="-216.55" font-family="Arial" font-size="11.00">Mangelnde Flexibilität</text>
<text text-anchor="middle" x="810" y="-203.05" font-family="Arial" font-size="11.00">(Der &quot;Mörder an der Tür&quot;)</text>
</g>
<!-- DEO&#45;&gt;Starr -->
<g id="edge17" class="edge">
<title>DEO&#45;&gt;Starr</title>
<path fill="none" stroke="#e74c3c" d="M624.88,-313.41C655.19,-308.56 694.25,-299.74 726,-284 748.46,-272.86 770.17,-254.64 785.89,-239.65"/>
<polygon fill="#e74c3c" stroke="#e74c3c" points="788.21,-242.28 792.89,-232.78 783.3,-237.29 788.21,-242.28"/>
</g>
<!-- Kollision -->
<g id="node11" class="node">
<title>Kollision</title>
<path fill="#fadbd8" stroke="black" d="M849.88,-125C849.88,-125 770.12,-125 770.12,-125 764.12,-125 758.12,-119 758.12,-113 758.12,-113 758.12,-101 758.12,-101 758.12,-95 764.12,-89 770.12,-89 770.12,-89 849.88,-89 849.88,-89 855.88,-89 861.88,-95 861.88,-101 861.88,-101 861.88,-113 861.88,-113 861.88,-119 855.88,-125 849.88,-125"/>
<text text-anchor="middle" x="810" y="-110.05" font-family="Arial" font-size="11.00">Pflichtenkollision</text>
<text text-anchor="middle" x="810" y="-96.55" font-family="Arial" font-size="11.00">(Keine Hierarchie)</text>
</g>
<!-- DEO&#45;&gt;Kollision -->
<g id="edge18" class="edge">
<title>DEO&#45;&gt;Kollision</title>
<path fill="none" stroke="#e74c3c" d="M625.05,-317.76C704.51,-314.61 855.87,-303.46 889,-264 923.01,-223.49 874.13,-165.86 839.44,-133.18"/>
<polygon fill="#e74c3c" stroke="#e74c3c" points="841.84,-130.63 832.1,-126.46 837.11,-135.79 841.84,-130.63"/>
</g>
<!-- Gesinnung -->
<g id="node12" class="node">
<title>Gesinnung</title>
<path fill="#fadbd8" stroke="black" d="M862.12,-52C862.12,-52 747.88,-52 747.88,-52 741.88,-52 735.88,-46 735.88,-40 735.88,-40 735.88,-28 735.88,-28 735.88,-22 741.88,-16 747.88,-16 747.88,-16 862.12,-16 862.12,-16 868.12,-16 874.12,-22 874.12,-28 874.12,-28 874.12,-40 874.12,-40 874.12,-46 868.12,-52 862.12,-52"/>
<text text-anchor="middle" x="805" y="-37.05" font-family="Arial" font-size="11.00">Gesinnungsethik vs.</text>
<text text-anchor="middle" x="805" y="-23.55" font-family="Arial" font-size="11.00">Verantwortung für Folgen</text>
</g>
<!-- DEO&#45;&gt;Gesinnung -->
<g id="edge19" class="edge">
<title>DEO&#45;&gt;Gesinnung</title>
<path fill="none" stroke="#e74c3c" d="M625.09,-307.46C650.12,-299.22 679.18,-285.66 698,-264 751.14,-202.85 707.1,-158.34 749,-89 755.46,-78.31 764.56,-68.3 773.54,-59.87"/>
<polygon fill="#e74c3c" stroke="#e74c3c" points="775.77,-62.58 780.91,-53.31 771.11,-57.35 775.77,-62.58"/>
</g>
<!-- Wille&#45;&gt;Pflicht_Aus -->
<!-- Wille&#45;&gt;Pflicht_Aus -->
<g id="edge9" class="edge">
<title>Wille&#45;&gt;Pflicht_Aus</title>
<path fill="none" stroke="black" d="M172.17,-195.24C173.9,-179.36 174.21,-155.49 173.1,-136.74"/>
<polygon fill="black" stroke="black" points="176.59,-136.47 172.29,-126.79 169.61,-137.04 176.59,-136.47"/>
</g>
<!-- Wille&#45;&gt;Pflicht_Gem -->
<g id="edge10" class="edge">
<title>Wille&#45;&gt;Pflicht_Gem</title>
<path fill="none" stroke="black" stroke-dasharray="1,5" d="M135.96,-195.2C122.58,-185.93 108.34,-173.17 101,-157.5 86.77,-127.11 96.92,-88.29 107.03,-62.59"/>
<polygon fill="black" stroke="black" points="110.2,-64.08 110.86,-53.51 103.75,-61.37 110.2,-64.08"/>
</g>
<!-- Pflicht_Aus&#45;&gt;Pflicht_Gem -->
<!-- Gesetz&#45;&gt;Mensch -->
<!-- Perfekt -->
<g id="node8" class="node">
<title>Perfekt</title>
<path fill="#abebc6" stroke="black" d="M409.75,-125C409.75,-125 260.25,-125 260.25,-125 254.25,-125 248.25,-119 248.25,-113 248.25,-113 248.25,-101 248.25,-101 248.25,-95 254.25,-89 260.25,-89 260.25,-89 409.75,-89 409.75,-89 415.75,-89 421.75,-95 421.75,-101 421.75,-101 421.75,-113 421.75,-113 421.75,-119 415.75,-125 409.75,-125"/>
<text text-anchor="middle" x="335" y="-110.05" font-family="Arial" font-size="11.00">Perfekte Pflichten</text>
<text text-anchor="middle" x="335" y="-96.55" font-family="Arial" font-size="11.00">(Strikte Verbote: Lügen, Stehlen)</text>
</g>
<!-- Gesetz&#45;&gt;Perfekt -->
<g id="edge15" class="edge">
<title>Gesetz&#45;&gt;Perfekt</title>
<path fill="none" stroke="black" d="M448.01,-195.1C435.55,-190.23 422.75,-184.36 411.5,-177.5 391.78,-165.47 372.55,-147.96 358.3,-133.53"/>
<polygon fill="black" stroke="black" points="361.03,-131.32 351.57,-126.54 355.99,-136.17 361.03,-131.32"/>
<text text-anchor="middle" x="428.75" y="-168" font-family="Arial" font-size="10.00">leitet ab</text>
</g>
<!-- Imperfekt -->
<g id="node9" class="node">
<title>Imperfekt</title>
<path fill="#d5f5e3" stroke="black" d="M409.75,-52C409.75,-52 260.25,-52 260.25,-52 254.25,-52 248.25,-46 248.25,-40 248.25,-40 248.25,-28 248.25,-28 248.25,-22 254.25,-16 260.25,-16 260.25,-16 409.75,-16 409.75,-16 415.75,-16 421.75,-22 421.75,-28 421.75,-28 421.75,-40 421.75,-40 421.75,-46 415.75,-52 409.75,-52"/>
<text text-anchor="middle" x="335" y="-37.05" font-family="Arial" font-size="11.00">Imperfekte Pflichten</text>
<text text-anchor="middle" x="335" y="-23.55" font-family="Arial" font-size="11.00">(Ziele: Hilfeleistung, Selbstkultur)</text>
</g>
<!-- Gesetz&#45;&gt;Imperfekt -->
<g id="edge16" class="edge">
<title>Gesetz&#45;&gt;Imperfekt</title>
<path fill="none" stroke="black" d="M493.96,-195.26C487.1,-184.47 478.17,-170.25 470.5,-157.5 452.38,-127.39 455.98,-113.72 431,-89 418.4,-76.53 402.34,-66.01 386.97,-57.67"/>
<polygon fill="black" stroke="black" points="388.85,-54.7 378.36,-53.2 385.62,-60.91 388.85,-54.7"/>
<text text-anchor="middle" x="487.75" y="-103.5" font-family="Arial" font-size="10.00">leitet ab</text>
</g>
<!-- Hypo -->
<g id="node7" class="node">
<title>Hypo</title>
<polygon fill="none" stroke="black" stroke-dasharray="1,5" points="685.25,-52 502.75,-52 502.75,-16 685.25,-16 685.25,-52"/>
<text text-anchor="middle" x="594" y="-37.05" font-family="Arial" font-size="11.00">Hypothetischer Imperativ</text>
<text text-anchor="middle" x="594" y="-23.55" font-family="Arial" font-size="11.00">(Mittel zum Zweck &#45; &quot;Wenn&#45;Dann&quot;)</text>
</g>
<!-- Mensch&#45;&gt;Hypo -->
<!-- Perfekt&#45;&gt;Imperfekt -->
<!-- Starr&#45;&gt;Kollision -->
<!-- Kollision&#45;&gt;Gesinnung -->
</g>
</svg>
