<?xml version="1.0" encoding="UTF-8" standalone="no"?>
<!DOCTYPE svg PUBLIC "-//W3C//DTD SVG 1.1//EN"
 "http://www.w3.org/Graphics/SVG/1.1/DTD/svg11.dtd">
<!-- Generated by graphviz version 12.2.1 (20241206.2353)
 -->
<!-- Pages: 1 -->
<svg width="864pt" height="831pt"
 viewBox="0.00 0.00 864.00 830.74" xmlns="http://www.w3.org/2000/svg" xmlns:xlink="http://www.w3.org/1999/xlink">
<g id="graph0" class="graph" transform="scale(0.963888 0.963888) rotate(0) translate(4 857.86)">
<polygon fill="white" stroke="none" points="-4,4 -4,-857.86 892.37,-857.86 892.37,4 -4,4"/>
<g id="clust1" class="cluster">
<title>cluster_types</title>
<polygon fill="none" stroke="#2c3e50" stroke-width="2" points="181.71,-663.36 181.71,-845.86 439.71,-845.86 439.71,-663.36 181.71,-663.36"/>
<text text-anchor="middle" x="310.71" y="-828.56" font-family="Times New Roman,serif" font-size="14.00">Dimensionen der Gerechtigkeit</text>
</g>
<g id="clust2" class="cluster">
<title>cluster_condition</title>
<polygon fill="none" stroke="#27ae60" stroke-dasharray="5,2" points="82.71,-207.58 82.71,-496.08 577.71,-496.08 577.71,-207.58 82.71,-207.58"/>
<text text-anchor="middle" x="330.21" y="-478.78" font-family="Times New Roman,serif" font-size="14.00">Konditionale Gleichbehandlung</text>
</g>
<g id="clust3" class="cluster">
<title>cluster_postulates</title>
<polygon fill="none" stroke="#2980b9" stroke-dasharray="1,5" points="585.71,-112.58 585.71,-622.36 775.71,-622.36 775.71,-112.58 585.71,-112.58"/>
<text text-anchor="middle" x="680.71" y="-605.06" font-family="Times New Roman,serif" font-size="14.00">Materialisierung in 5 Postulaten</text>
</g>
<!-- Formal -->
<g id="node1" class="node">
<title>Formal</title>
<path fill="#d6eaf8" stroke="black" d="M419.58,-813.36C419.58,-813.36 201.83,-813.36 201.83,-813.36 195.83,-813.36 189.83,-807.36 189.83,-801.36 189.83,-801.36 189.83,-789.36 189.83,-789.36 189.83,-783.36 195.83,-777.36 201.83,-777.36 201.83,-777.36 419.58,-777.36 419.58,-777.36 425.58,-777.36 431.58,-783.36 431.58,-789.36 431.58,-789.36 431.58,-801.36 431.58,-801.36 431.58,-807.36 425.58,-813.36 419.58,-813.36"/>
<text text-anchor="middle" x="310.71" y="-798.41" font-family="Helvetica,sans-Serif" font-size="11.00">FORMALE GERECHTIGKEIT</text>
<text text-anchor="middle" x="310.71" y="-784.91" font-family="Helvetica,sans-Serif" font-size="11.00">(Gleichbehandlung von Gleichem nach Regeln)</text>
</g>
<!-- Material -->
<g id="node2" class="node">
<title>Material</title>
<path fill="#d5f5e3" stroke="black" stroke-width="2" d="M406.71,-707.36C406.71,-707.36 214.71,-707.36 214.71,-707.36 208.71,-707.36 202.71,-701.36 202.71,-695.36 202.71,-695.36 202.71,-683.36 202.71,-683.36 202.71,-677.36 208.71,-671.36 214.71,-671.36 214.71,-671.36 406.71,-671.36 406.71,-671.36 412.71,-671.36 418.71,-677.36 418.71,-683.36 418.71,-683.36 418.71,-695.36 418.71,-695.36 418.71,-701.36 412.71,-707.36 406.71,-707.36"/>
<text text-anchor="middle" x="310.71" y="-692.41" font-family="Helvetica,sans-Serif" font-size="11.00">MATERIALE GERECHTIGKEIT</text>
<text text-anchor="middle" x="310.71" y="-678.91" font-family="Helvetica,sans-Serif" font-size="11.00">(Inhaltliche Maßstäbe sozialer Interaktion)</text>
</g>
<!-- Formal&#45;&gt;Material -->
<g id="edge8" class="edge">
<title>Formal&#45;&gt;Material</title>
<path fill="none" stroke="#444444" stroke-dasharray="1,5" d="M310.71,-765.68C310.71,-751.33 310.71,-733.98 310.71,-719.56"/>
<polygon fill="#444444" stroke="#444444" points="307.21,-765.68 310.71,-775.68 314.21,-765.68 307.21,-765.68"/>
<polygon fill="#444444" stroke="#444444" points="314.21,-719.77 310.71,-709.77 307.21,-719.77 314.21,-719.77"/>
<text text-anchor="middle" x="340.33" y="-738.86" font-family="Helvetica,sans-Serif" font-size="10.00">ergänzt durch</text>
</g>
<!-- Dist -->
<g id="node3" class="node">
<title>Dist</title>
<path fill="#abebc6" stroke="black" d="M441.78,-568.16C441.78,-568.16 441.78,-575.56 441.78,-575.56 441.78,-579.26 438.15,-583.7 434.53,-584.44 434.53,-584.44 372.25,-597.17 372.25,-597.17 368.62,-597.91 361.3,-598.65 357.6,-598.65 357.6,-598.65 263.82,-598.65 263.82,-598.65 260.12,-598.65 252.79,-597.91 249.17,-597.17 249.17,-597.17 186.89,-584.44 186.89,-584.44 183.26,-583.7 179.64,-579.26 179.64,-575.56 179.64,-575.56 179.64,-568.16 179.64,-568.16 179.64,-564.47 183.26,-560.03 186.89,-559.29 186.89,-559.29 249.17,-546.56 249.17,-546.56 252.79,-545.82 260.12,-545.08 263.82,-545.08 263.82,-545.08 357.6,-545.08 357.6,-545.08 361.3,-545.08 368.62,-545.82 372.25,-546.56 372.25,-546.56 434.53,-559.29 434.53,-559.29 438.15,-560.03 441.78,-564.47 441.78,-568.16"/>
<text text-anchor="middle" x="310.71" y="-574.91" font-family="Helvetica,sans-Serif" font-size="11.00">Distributive Gerechtigkeit</text>
<text text-anchor="middle" x="310.71" y="-561.41" font-family="Helvetica,sans-Serif" font-size="11.00">(Angelpunkt der Güterallokation)</text>
</g>
<!-- Material&#45;&gt;Dist -->
<g id="edge9" class="edge">
<title>Material&#45;&gt;Dist</title>
<path fill="none" stroke="#444444" d="M310.71,-670.82C310.71,-654.78 310.71,-630.53 310.71,-610.18"/>
<polygon fill="#444444" stroke="#444444" points="314.21,-610.24 310.71,-600.24 307.21,-610.24 314.21,-610.24"/>
<text text-anchor="middle" x="340.33" y="-632.86" font-family="Helvetica,sans-Serif" font-size="10.00">fokussiert auf</text>
</g>
<!-- Default -->
<g id="node4" class="node">
<title>Default</title>
<path fill="#f9e79f" stroke="black" d="M362.58,-463.58C362.58,-463.58 258.83,-463.58 258.83,-463.58 252.83,-463.58 246.83,-457.58 246.83,-451.58 246.83,-451.58 246.83,-439.58 246.83,-439.58 246.83,-433.58 252.83,-427.58 258.83,-427.58 258.83,-427.58 362.58,-427.58 362.58,-427.58 368.58,-427.58 374.58,-433.58 374.58,-439.58 374.58,-439.58 374.58,-451.58 374.58,-451.58 374.58,-457.58 368.58,-463.58 362.58,-463.58"/>
<text text-anchor="middle" x="310.71" y="-448.63" font-family="Helvetica,sans-Serif" font-size="11.00">Prämisse:</text>
<text text-anchor="middle" x="310.71" y="-435.13" font-family="Helvetica,sans-Serif" font-size="11.00">GLEICHVERTEILUNG</text>
</g>
<!-- Dist&#45;&gt;Default -->
<g id="edge10" class="edge">
<title>Dist&#45;&gt;Default</title>
<path fill="none" stroke="#444444" d="M310.71,-544.81C310.71,-524.46 310.71,-496.21 310.71,-475.22"/>
<polygon fill="#444444" stroke="#444444" points="314.21,-475.34 310.71,-465.34 307.21,-475.34 314.21,-475.34"/>
<text text-anchor="middle" x="333.21" y="-506.58" font-family="Helvetica,sans-Serif" font-size="10.00">Startpunkt</text>
</g>
<!-- Reasons -->
<g id="node5" class="node">
<title>Reasons</title>
<path fill="#fad7a0" stroke="black" d="M370.83,-357.58C370.83,-357.58 250.58,-357.58 250.58,-357.58 244.58,-357.58 238.58,-351.58 238.58,-345.58 238.58,-345.58 238.58,-333.58 238.58,-333.58 238.58,-327.58 244.58,-321.58 250.58,-321.58 250.58,-321.58 370.83,-321.58 370.83,-321.58 376.83,-321.58 382.83,-327.58 382.83,-333.58 382.83,-333.58 382.83,-345.58 382.83,-345.58 382.83,-351.58 376.83,-357.58 370.83,-357.58"/>
<text text-anchor="middle" x="310.71" y="-342.63" font-family="Helvetica,sans-Serif" font-size="11.00">Rechtfertigungsgründe für</text>
<text text-anchor="middle" x="310.71" y="-329.13" font-family="Helvetica,sans-Serif" font-size="11.00">UNGLEICHVERTEILUNG</text>
</g>
<!-- Default&#45;&gt;Reasons -->
<g id="edge11" class="edge">
<title>Default&#45;&gt;Reasons</title>
<path fill="none" stroke="#444444" d="M310.71,-427.4C310.71,-411.6 310.71,-387.84 310.71,-369.17"/>
<polygon fill="#444444" stroke="#444444" points="314.21,-369.29 310.71,-359.29 307.21,-369.29 314.21,-369.29"/>
<text text-anchor="middle" x="378.21" y="-389.08" font-family="Helvetica,sans-Serif" font-size="10.00">Abweichung erfordert Triftigkeit</text>
</g>
<!-- Leistung -->
<g id="node6" class="node">
<title>Leistung</title>
<path fill="#fef9e7" stroke="black" d="M191.08,-251.58C191.08,-251.58 102.33,-251.58 102.33,-251.58 96.33,-251.58 90.33,-245.58 90.33,-239.58 90.33,-239.58 90.33,-227.58 90.33,-227.58 90.33,-221.58 96.33,-215.58 102.33,-215.58 102.33,-215.58 191.08,-215.58 191.08,-215.58 197.08,-215.58 203.08,-221.58 203.08,-227.58 203.08,-227.58 203.08,-239.58 203.08,-239.58 203.08,-245.58 197.08,-251.58 191.08,-251.58"/>
<text text-anchor="middle" x="146.71" y="-229.88" font-family="Helvetica,sans-Serif" font-size="11.00">Individuelle Leistung</text>
</g>
<!-- Reasons&#45;&gt;Leistung -->
<g id="edge1" class="edge">
<title>Reasons&#45;&gt;Leistung</title>
<path fill="none" stroke="#444444" d="M283.26,-321.17C255.94,-303.85 213.84,-277.15 183.61,-257.98"/>
<polygon fill="#444444" stroke="#444444" points="185.85,-255.25 175.53,-252.85 182.1,-261.16 185.85,-255.25"/>
</g>
<!-- Bedarf -->
<g id="node7" class="node">
<title>Bedarf</title>
<path fill="#fef9e7" stroke="black" d="M362.96,-251.58C362.96,-251.58 258.46,-251.58 258.46,-251.58 252.46,-251.58 246.46,-245.58 246.46,-239.58 246.46,-239.58 246.46,-227.58 246.46,-227.58 246.46,-221.58 252.46,-215.58 258.46,-215.58 258.46,-215.58 362.96,-215.58 362.96,-215.58 368.96,-215.58 374.96,-221.58 374.96,-227.58 374.96,-227.58 374.96,-239.58 374.96,-239.58 374.96,-245.58 368.96,-251.58 362.96,-251.58"/>
<text text-anchor="middle" x="310.71" y="-229.88" font-family="Helvetica,sans-Serif" font-size="11.00">Besondere Bedürfnisse</text>
</g>
<!-- Reasons&#45;&gt;Bedarf -->
<g id="edge2" class="edge">
<title>Reasons&#45;&gt;Bedarf</title>
<path fill="none" stroke="#444444" d="M310.71,-321.4C310.71,-305.6 310.71,-281.84 310.71,-263.17"/>
<polygon fill="#444444" stroke="#444444" points="314.21,-263.29 310.71,-253.29 307.21,-263.29 314.21,-263.29"/>
</g>
<!-- Voluntary -->
<g id="node8" class="node">
<title>Voluntary</title>
<path fill="#fef9e7" stroke="black" d="M557.21,-251.58C557.21,-251.58 430.21,-251.58 430.21,-251.58 424.21,-251.58 418.21,-245.58 418.21,-239.58 418.21,-239.58 418.21,-227.58 418.21,-227.58 418.21,-221.58 424.21,-215.58 430.21,-215.58 430.21,-215.58 557.21,-215.58 557.21,-215.58 563.21,-215.58 569.21,-221.58 569.21,-227.58 569.21,-227.58 569.21,-239.58 569.21,-239.58 569.21,-245.58 563.21,-251.58 557.21,-251.58"/>
<text text-anchor="middle" x="493.71" y="-229.88" font-family="Helvetica,sans-Serif" font-size="11.00">Folgen freiwilligen Handelns</text>
</g>
<!-- Reasons&#45;&gt;Voluntary -->
<g id="edge3" class="edge">
<title>Reasons&#45;&gt;Voluntary</title>
<path fill="none" stroke="#444444" d="M341.34,-321.17C372.08,-303.7 419.61,-276.69 453.4,-257.48"/>
<polygon fill="#444444" stroke="#444444" points="454.7,-260.77 461.66,-252.79 451.24,-254.69 454.7,-260.77"/>
</g>
<!-- P4 -->
<g id="node12" class="node">
<title>P4</title>
<polygon fill="#aed6f1" stroke="black" stroke-width="2" points="735.83,-251.58 615.58,-251.58 615.58,-215.58 735.83,-215.58 735.83,-251.58"/>
<text text-anchor="middle" x="675.71" y="-229.88" font-family="Helvetica,sans-Serif" font-size="11.00">Chancengerechtigkeit</text>
</g>
<!-- Reasons&#45;&gt;P4 -->
<g id="edge13" class="edge">
<title>Reasons&#45;&gt;P4</title>
<path fill="none" stroke="#444444" d="M371.8,-321.17C435.91,-302.9 536.61,-274.21 604.34,-254.91"/>
<polygon fill="#444444" stroke="#444444" points="605.21,-258.3 613.87,-252.19 603.3,-251.57 605.21,-258.3"/>
<text text-anchor="middle" x="530.78" y="-283.08" font-family="Helvetica,sans-Serif" font-size="10.00">konkretisiert</text>
</g>
<!-- P5 -->
<g id="node13" class="node">
<title>P5</title>
<path fill="#aed6f1" stroke="black" d="M745.58,-156.58C745.58,-156.58 605.83,-156.58 605.83,-156.58 599.83,-156.58 593.83,-150.58 593.83,-144.58 593.83,-144.58 593.83,-132.58 593.83,-132.58 593.83,-126.58 599.83,-120.58 605.83,-120.58 605.83,-120.58 745.58,-120.58 745.58,-120.58 751.58,-120.58 757.58,-126.58 757.58,-132.58 757.58,-132.58 757.58,-144.58 757.58,-144.58 757.58,-150.58 751.58,-156.58 745.58,-156.58"/>
<text text-anchor="middle" x="675.71" y="-134.88" font-family="Helvetica,sans-Serif" font-size="11.00">Ökonomische Ausgewogenheit</text>
</g>
<!-- Reasons&#45;&gt;P5 -->
<g id="edge14" class="edge">
<title>Reasons&#45;&gt;P5</title>
<path fill="none" stroke="#444444" d="M238.26,-331.6C130.1,-318.53 -53.85,-284.39 15.46,-207.58 52.69,-166.31 408.75,-148.62 581.97,-142.41"/>
<polygon fill="#444444" stroke="#444444" points="581.98,-145.91 591.85,-142.06 581.73,-138.92 581.98,-145.91"/>
<text text-anchor="middle" x="42.08" y="-230.08" font-family="Helvetica,sans-Serif" font-size="10.00">konkretisiert</text>
</g>
<!-- P1 -->
<g id="node9" class="node">
<title>P1</title>
<path fill="#ebf5fb" stroke="black" d="M721.96,-589.86C721.96,-589.86 629.46,-589.86 629.46,-589.86 623.46,-589.86 617.46,-583.86 617.46,-577.86 617.46,-577.86 617.46,-565.86 617.46,-565.86 617.46,-559.86 623.46,-553.86 629.46,-553.86 629.46,-553.86 721.96,-553.86 721.96,-553.86 727.96,-553.86 733.96,-559.86 733.96,-565.86 733.96,-565.86 733.96,-577.86 733.96,-577.86 733.96,-583.86 727.96,-589.86 721.96,-589.86"/>
<text text-anchor="middle" x="675.71" y="-568.16" font-family="Helvetica,sans-Serif" font-size="11.00">Rechtliche Gleichheit</text>
</g>
<!-- P1&#45;&gt;Formal -->
<g id="edge12" class="edge">
<title>P1&#45;&gt;Formal</title>
<path fill="none" stroke="#444444" stroke-dasharray="5,2" d="M646.95,-590.32C581.75,-629.88 422.67,-726.42 349.14,-771.04"/>
<polygon fill="#444444" stroke="#444444" points="347.38,-768.02 340.64,-776.2 351.01,-774 347.38,-768.02"/>
<text text-anchor="middle" x="546.38" y="-685.86" font-family="Helvetica,sans-Serif" font-size="10.00">basiert auf</text>
</g>
<!-- P2 -->
<g id="node10" class="node">
<title>P2</title>
<path fill="#ebf5fb" stroke="black" d="M718.58,-463.58C718.58,-463.58 632.83,-463.58 632.83,-463.58 626.83,-463.58 620.83,-457.58 620.83,-451.58 620.83,-451.58 620.83,-439.58 620.83,-439.58 620.83,-433.58 626.83,-427.58 632.83,-427.58 632.83,-427.58 718.58,-427.58 718.58,-427.58 724.58,-427.58 730.58,-433.58 730.58,-439.58 730.58,-439.58 730.58,-451.58 730.58,-451.58 730.58,-457.58 724.58,-463.58 718.58,-463.58"/>
<text text-anchor="middle" x="675.71" y="-441.88" font-family="Helvetica,sans-Serif" font-size="11.00">Bürgerliche Freiheit</text>
</g>
<!-- P1&#45;&gt;P2 -->
<!-- P3 -->
<g id="node11" class="node">
<title>P3</title>
<path fill="#ebf5fb" stroke="black" d="M729.08,-357.58C729.08,-357.58 622.33,-357.58 622.33,-357.58 616.33,-357.58 610.33,-351.58 610.33,-345.58 610.33,-345.58 610.33,-333.58 610.33,-333.58 610.33,-327.58 616.33,-321.58 622.33,-321.58 622.33,-321.58 729.08,-321.58 729.08,-321.58 735.08,-321.58 741.08,-327.58 741.08,-333.58 741.08,-333.58 741.08,-345.58 741.08,-345.58 741.08,-351.58 735.08,-357.58 729.08,-357.58"/>
<text text-anchor="middle" x="675.71" y="-335.88" font-family="Helvetica,sans-Serif" font-size="11.00">Demokratische Teilhabe</text>
</g>
<!-- P2&#45;&gt;P3 -->
<!-- P3&#45;&gt;P4 -->
<!-- P4&#45;&gt;P5 -->
<!-- SME -->
<g id="node14" class="node">
<title>SME</title>
<path fill="#f1c40f" stroke="black" d="M884.37,-27.09C884.37,-27.09 884.37,-34.49 884.37,-34.49 884.37,-38.19 880.74,-42.6 877.11,-43.32 877.11,-43.32 812.16,-56.14 812.16,-56.14 808.53,-56.86 801.2,-57.58 797.5,-57.58 797.5,-57.58 699.91,-57.58 699.91,-57.58 696.21,-57.58 688.89,-56.86 685.26,-56.14 685.26,-56.14 620.3,-43.32 620.3,-43.32 616.68,-42.6 613.05,-38.19 613.05,-34.49 613.05,-34.49 613.05,-27.09 613.05,-27.09 613.05,-23.39 616.68,-18.98 620.3,-18.26 620.3,-18.26 685.26,-5.43 685.26,-5.43 688.89,-4.72 696.21,-4 699.91,-4 699.91,-4 797.5,-4 797.5,-4 801.2,-4 808.53,-4.72 812.16,-5.43 812.16,-5.43 877.11,-18.26 877.11,-18.26 880.74,-18.98 884.37,-23.39 884.37,-27.09"/>
<path fill="none" stroke="black" d="M888.37,-25.99C888.37,-25.99 888.37,-35.58 888.37,-35.58 888.37,-40.38 883.67,-46.1 878.96,-47.03 878.96,-47.03 814.7,-59.72 814.7,-59.72 810,-60.65 800.5,-61.58 795.7,-61.58 795.7,-61.58 701.71,-61.58 701.71,-61.58 696.92,-61.58 687.42,-60.65 682.72,-59.72 682.72,-59.72 618.45,-47.03 618.45,-47.03 613.75,-46.1 609.05,-40.38 609.05,-35.58 609.05,-35.58 609.05,-25.99 609.05,-25.99 609.05,-21.2 613.75,-15.48 618.45,-14.55 618.45,-14.55 682.72,-1.86 682.72,-1.86 687.42,-0.93 696.92,0 701.71,0 701.71,0 795.7,0 795.7,0 800.5,0 810,-0.93 814.7,-1.86 814.7,-1.86 878.96,-14.55 878.96,-14.55 883.67,-15.48 888.37,-21.2 888.37,-25.99"/>
<text text-anchor="middle" x="748.71" y="-33.84" font-family="Helvetica,sans-Serif" font-size="11.00">SOZIALE MARKTWIRTSCHAFT</text>
<text text-anchor="middle" x="748.71" y="-20.34" font-family="Helvetica,sans-Serif" font-size="11.00">(Institutionelle Verklammerung)</text>
</g>
<!-- P4&#45;&gt;SME -->
<g id="edge15" class="edge">
<title>P4&#45;&gt;SME</title>
<path fill="none" stroke="#444444" d="M714.71,-215.22C737.9,-202.59 765.34,-183.06 778.71,-156.58 792.07,-130.12 783.45,-97.47 772.08,-72.21"/>
<polygon fill="#444444" stroke="#444444" points="775.25,-70.72 767.75,-63.23 768.94,-73.76 775.25,-70.72"/>
</g>
<!-- P5&#45;&gt;SME -->
<g id="edge16" class="edge">
<title>P5&#45;&gt;SME</title>
<path fill="none" stroke="#444444" d="M687.76,-120.11C696.99,-106.74 710.07,-87.78 721.75,-70.85"/>
<polygon fill="#444444" stroke="#444444" points="724.4,-73.17 727.2,-62.95 718.64,-69.2 724.4,-73.17"/>
</g>
</g>
</svg>
