<?xml version="1.0" encoding="UTF-8" standalone="no"?>
<!DOCTYPE svg PUBLIC "-//W3C//DTD SVG 1.1//EN"
 "http://www.w3.org/Graphics/SVG/1.1/DTD/svg11.dtd">
<!-- Generated by graphviz version 12.2.1 (20241206.2353)
 -->
<!-- Pages: 1 -->
<svg width="864pt" height="480pt"
 viewBox="0.00 0.00 864.00 480.33" xmlns="http://www.w3.org/2000/svg" xmlns:xlink="http://www.w3.org/1999/xlink">
<g id="graph0" class="graph" transform="scale(0.99654 0.99654) rotate(0) translate(4 478)">
<polygon fill="white" stroke="none" points="-4,4 -4,-478 863,-478 863,4 -4,4"/>
<g id="clust1" class="cluster">
<title>cluster_principles</title>
<polygon fill="none" stroke="#3498db" stroke-dasharray="5,2" points="8,-154 8,-303.5 160,-303.5 160,-154 8,-154"/>
<text text-anchor="middle" x="84" y="-286.2" font-family="Times New Roman,serif" font-size="14.00">Die zwei Grundpfeiler</text>
</g>
<g id="clust2" class="cluster">
<title>cluster_dialog</title>
<polygon fill="none" stroke="#27ae60" stroke-dasharray="5,2" points="186,-8 186,-303.5 397,-303.5 397,-8 186,-8"/>
<text text-anchor="middle" x="291.5" y="-286.2" font-family="Times New Roman,serif" font-size="14.00">Die Ideale Sprechsituation (Regeln)</text>
</g>
<g id="clust3" class="cluster">
<title>cluster_econ</title>
<polygon fill="none" stroke="#f1c40f" stroke-dasharray="5,2" points="405,-154 405,-303.5 645,-303.5 645,-154 405,-154"/>
<text text-anchor="middle" x="525" y="-286.2" font-family="Times New Roman,serif" font-size="14.00">Anwendung: Integrative Wirtschaftsethik</text>
</g>
<g id="clust4" class="cluster">
<title>cluster_critique</title>
<polygon fill="none" stroke="#e74c3c" stroke-dasharray="5,2" points="679,-81 679,-303.5 851,-303.5 851,-81 679,-81"/>
<text text-anchor="middle" x="765" y="-286.2" font-family="Times New Roman,serif" font-size="14.00">Kritik &amp; Realität</text>
</g>
<!-- DE -->
<g id="node1" class="node">
<title>DE</title>
<path fill="#2c3e50" stroke="black" stroke-width="2" d="M584.12,-377.5C584.12,-377.5 463.88,-377.5 463.88,-377.5 457.88,-377.5 451.88,-371.5 451.88,-365.5 451.88,-365.5 451.88,-353.5 451.88,-353.5 451.88,-347.5 457.88,-341.5 463.88,-341.5 463.88,-341.5 584.12,-341.5 584.12,-341.5 590.12,-341.5 596.12,-347.5 596.12,-353.5 596.12,-353.5 596.12,-365.5 596.12,-365.5 596.12,-371.5 590.12,-377.5 584.12,-377.5"/>
<text text-anchor="middle" x="524" y="-362.55" font-family="Arial" font-size="11.00" fill="white">DISKURSETHIK</text>
<text text-anchor="middle" x="524" y="-349.05" font-family="Arial" font-size="11.00" fill="white">(Moral durch fairen Dialog)</text>
</g>
<!-- D -->
<g id="node2" class="node">
<title>D</title>
<path fill="#aed6f1" stroke="black" d="M127.75,-271C127.75,-271 32.25,-271 32.25,-271 26.25,-271 20.25,-265 20.25,-259 20.25,-259 20.25,-247 20.25,-247 20.25,-241 26.25,-235 32.25,-235 32.25,-235 127.75,-235 127.75,-235 133.75,-235 139.75,-241 139.75,-247 139.75,-247 139.75,-259 139.75,-259 139.75,-265 133.75,-271 127.75,-271"/>
<text text-anchor="middle" x="80" y="-256.05" font-family="Arial" font-size="11.00">Diskursprinzip</text>
<text text-anchor="middle" x="80" y="-242.55" font-family="Arial" font-size="11.00"> (rationale Motivation)</text>
</g>
<!-- DE&#45;&gt;D -->
<g id="edge8" class="edge">
<title>DE&#45;&gt;D</title>
<path fill="none" stroke="#666666" d="M450.98,-357.16C358.58,-354.52 205.31,-346.67 154,-323.5 132.65,-313.86 113.52,-295.49 100.06,-280.06"/>
<polygon fill="#666666" stroke="#666666" points="102.89,-277.99 93.79,-272.57 97.52,-282.48 102.89,-277.99"/>
</g>
<!-- U -->
<g id="node3" class="node">
<title>U</title>
<path fill="#aed6f1" stroke="black" d="M139.62,-198C139.62,-198 28.38,-198 28.38,-198 22.38,-198 16.38,-192 16.38,-186 16.38,-186 16.38,-174 16.38,-174 16.38,-168 22.38,-162 28.38,-162 28.38,-162 139.62,-162 139.62,-162 145.62,-162 151.62,-168 151.62,-174 151.62,-174 151.62,-186 151.62,-186 151.62,-192 145.62,-198 139.62,-198"/>
<text text-anchor="middle" x="84" y="-176.3" font-family="Arial" font-size="11.00">Universalisierungsprinzip</text>
</g>
<!-- DE&#45;&gt;U -->
<g id="edge9" class="edge">
<title>DE&#45;&gt;U</title>
<path fill="none" stroke="#666666" d="M451.09,-354.61C363.59,-348.61 223.46,-334.41 182,-303.5 154.91,-283.3 169.81,-261.63 149,-235 140.48,-224.09 129.41,-213.89 118.82,-205.35"/>
<polygon fill="#666666" stroke="#666666" points="120.97,-202.59 110.92,-199.23 116.68,-208.12 120.97,-202.59"/>
</g>
<!-- Rules -->
<g id="node4" class="node">
<title>Rules</title>
<polygon fill="#abebc6" stroke="black" stroke-width="2" points="389.25,-271 260.75,-271 260.75,-235 389.25,-235 389.25,-271"/>
<text text-anchor="middle" x="325" y="-256.05" font-family="Arial" font-size="11.00">Zwangloser Zwang des</text>
<text text-anchor="middle" x="325" y="-242.55" font-family="Arial" font-size="11.00">besseren Arguments</text>
</g>
<!-- DE&#45;&gt;Rules -->
<g id="edge14" class="edge">
<title>DE&#45;&gt;Rules</title>
<path fill="none" stroke="#666666" d="M479.36,-340.54C455.65,-330.5 426.26,-317.27 401,-303.5 386.79,-295.76 371.73,-286.25 358.81,-277.64"/>
<polygon fill="#666666" stroke="#666666" points="360.89,-274.83 350.64,-272.13 356.97,-280.63 360.89,-274.83"/>
</g>
<!-- Ulrich -->
<g id="node9" class="node">
<title>Ulrich</title>
<path fill="#fcf3cf" stroke="black" d="M599.88,-271C599.88,-271 448.12,-271 448.12,-271 442.12,-271 436.12,-265 436.12,-259 436.12,-259 436.12,-247 436.12,-247 436.12,-241 442.12,-235 448.12,-235 448.12,-235 599.88,-235 599.88,-235 605.88,-235 611.88,-241 611.88,-247 611.88,-247 611.88,-259 611.88,-259 611.88,-265 605.88,-271 599.88,-271"/>
<text text-anchor="middle" x="524" y="-256.05" font-family="Arial" font-size="11.00">Peter Ulrich:</text>
<text text-anchor="middle" x="524" y="-242.55" font-family="Arial" font-size="11.00">Unternehmen als Ort des Dialogs</text>
</g>
<!-- DE&#45;&gt;Ulrich -->
<g id="edge16" class="edge">
<title>DE&#45;&gt;Ulrich</title>
<path fill="none" stroke="#666666" d="M524,-340.77C524,-324.91 524,-301.38 524,-282.81"/>
<polygon fill="#666666" stroke="#666666" points="527.5,-282.98 524,-272.98 520.5,-282.98 527.5,-282.98"/>
<text text-anchor="middle" x="555.5" y="-314" font-family="Arial" font-size="10.00">transferiert auf</text>
</g>
<!-- Real -->
<g id="node11" class="node">
<title>Real</title>
<path fill="#fadbd8" stroke="black" d="M818.88,-271C818.88,-271 703.12,-271 703.12,-271 697.12,-271 691.12,-265 691.12,-259 691.12,-259 691.12,-247 691.12,-247 691.12,-241 697.12,-235 703.12,-235 703.12,-235 818.88,-235 818.88,-235 824.88,-235 830.88,-241 830.88,-247 830.88,-247 830.88,-259 830.88,-259 830.88,-265 824.88,-271 818.88,-271"/>
<text text-anchor="middle" x="761" y="-256.05" font-family="Arial" font-size="11.00">Strategische Interessen &amp;</text>
<text text-anchor="middle" x="761" y="-242.55" font-family="Arial" font-size="11.00">Zeitdruck</text>
</g>
<!-- DE&#45;&gt;Real -->
<g id="edge18" class="edge">
<title>DE&#45;&gt;Real</title>
<path fill="none" stroke="#e74c3c" d="M596.81,-349.01C623.01,-343.76 652.19,-335.73 677,-323.5 699.49,-312.41 721.2,-294.19 736.91,-279.19"/>
<polygon fill="#e74c3c" stroke="#e74c3c" points="739.23,-281.81 743.91,-272.31 734.32,-276.82 739.23,-281.81"/>
</g>
<!-- Incap -->
<g id="node12" class="node">
<title>Incap</title>
<path fill="#fadbd8" stroke="black" d="M818.12,-198C818.12,-198 703.88,-198 703.88,-198 697.88,-198 691.88,-192 691.88,-186 691.88,-186 691.88,-174 691.88,-174 691.88,-168 697.88,-162 703.88,-162 703.88,-162 818.12,-162 818.12,-162 824.12,-162 830.12,-168 830.12,-174 830.12,-174 830.12,-186 830.12,-186 830.12,-192 824.12,-198 818.12,-198"/>
<text text-anchor="middle" x="761" y="-183.05" font-family="Arial" font-size="11.00">Diskursunfähige Subjekte</text>
<text text-anchor="middle" x="761" y="-169.55" font-family="Arial" font-size="11.00">(Tiere, Kinder, Zukunft)</text>
</g>
<!-- DE&#45;&gt;Incap -->
<g id="edge19" class="edge">
<title>DE&#45;&gt;Incap</title>
<path fill="none" stroke="#e74c3c" d="M587.36,-340.6C608.92,-332.09 631.86,-320.06 649,-303.5 673.3,-280.02 659.97,-260.63 682,-235 692.1,-223.25 705.32,-212.9 718.05,-204.49"/>
<polygon fill="#e74c3c" stroke="#e74c3c" points="719.76,-207.54 726.35,-199.24 716.02,-201.62 719.76,-207.54"/>
</g>
<!-- Media -->
<g id="node13" class="node">
<title>Media</title>
<path fill="#fadbd8" stroke="black" d="M831.12,-125C831.12,-125 698.88,-125 698.88,-125 692.88,-125 686.88,-119 686.88,-113 686.88,-113 686.88,-101 686.88,-101 686.88,-95 692.88,-89 698.88,-89 698.88,-89 831.12,-89 831.12,-89 837.12,-89 843.12,-95 843.12,-101 843.12,-101 843.12,-113 843.12,-113 843.12,-119 837.12,-125 831.12,-125"/>
<text text-anchor="middle" x="765" y="-103.3" font-family="Arial" font-size="11.00">Manipulative Medienselektion</text>
</g>
<!-- DE&#45;&gt;Media -->
<g id="edge20" class="edge">
<title>DE&#45;&gt;Media</title>
<path fill="none" stroke="#e74c3c" d="M597.08,-356.3C680.56,-352.06 809.58,-339.67 840,-303.5 844.33,-298.35 842.41,-160.05 839,-154 833.93,-145 826.29,-137.53 817.82,-131.41"/>
<polygon fill="#e74c3c" stroke="#e74c3c" points="819.96,-128.62 809.66,-126.12 816.15,-134.5 819.96,-128.62"/>
</g>
<!-- D&#45;&gt;U -->
<!-- D&#45;&gt;Rules -->
<g id="edge10" class="edge">
<title>D&#45;&gt;Rules</title>
<path fill="none" stroke="#666666" d="M140.25,-253C173.1,-253 214.1,-253 249.12,-253"/>
<polygon fill="#666666" stroke="#666666" points="248.75,-256.5 258.75,-253 248.75,-249.5 248.75,-256.5"/>
<text text-anchor="middle" x="200.25" y="-258.5" font-family="Arial" font-size="10.00">erfordert</text>
</g>
<!-- R1 -->
<g id="node5" class="node">
<title>R1</title>
<path fill="#d5f5e3" stroke="black" d="M336.25,-198C336.25,-198 207.75,-198 207.75,-198 201.75,-198 195.75,-192 195.75,-186 195.75,-186 195.75,-174 195.75,-174 195.75,-168 201.75,-162 207.75,-162 207.75,-162 336.25,-162 336.25,-162 342.25,-162 348.25,-168 348.25,-174 348.25,-174 348.25,-186 348.25,-186 348.25,-192 342.25,-198 336.25,-198"/>
<text text-anchor="middle" x="272" y="-176.3" font-family="Arial" font-size="11.00">Chancengleichheit der Rede</text>
</g>
<!-- Rules&#45;&gt;R1 -->
<!-- Rules&#45;&gt;R1 -->
<g id="edge11" class="edge">
<title>Rules&#45;&gt;R1</title>
<path fill="none" stroke="#666666" d="M318.05,-234.81C312.67,-226.44 305.24,-216.2 297.86,-206.9"/>
<polygon fill="#666666" stroke="#666666" points="300.59,-204.7 291.53,-199.2 295.18,-209.15 300.59,-204.7"/>
</g>
<!-- R2 -->
<g id="node6" class="node">
<title>R2</title>
<path fill="#d5f5e3" stroke="black" d="M356.25,-125C356.25,-125 239.75,-125 239.75,-125 233.75,-125 227.75,-119 227.75,-113 227.75,-113 227.75,-101 227.75,-101 227.75,-95 233.75,-89 239.75,-89 239.75,-89 356.25,-89 356.25,-89 362.25,-89 368.25,-95 368.25,-101 368.25,-101 368.25,-113 368.25,-113 368.25,-119 362.25,-125 356.25,-125"/>
<text text-anchor="middle" x="298" y="-103.3" font-family="Arial" font-size="11.00">Inklusion aller Betroffenen</text>
</g>
<!-- Rules&#45;&gt;R2 -->
<g id="edge12" class="edge">
<title>Rules&#45;&gt;R2</title>
<path fill="none" stroke="#666666" d="M338.42,-234.8C352.29,-214.78 370.19,-181.02 357,-154 352.9,-145.61 346.46,-138.31 339.3,-132.14"/>
<polygon fill="#666666" stroke="#666666" points="341.91,-129.74 331.87,-126.35 337.61,-135.26 341.91,-129.74"/>
</g>
<!-- R3 -->
<g id="node7" class="node">
<title>R3</title>
<path fill="#d5f5e3" stroke="black" d="M366.5,-52C366.5,-52 251.5,-52 251.5,-52 245.5,-52 239.5,-46 239.5,-40 239.5,-40 239.5,-28 239.5,-28 239.5,-22 245.5,-16 251.5,-16 251.5,-16 366.5,-16 366.5,-16 372.5,-16 378.5,-22 378.5,-28 378.5,-28 378.5,-40 378.5,-40 378.5,-46 372.5,-52 366.5,-52"/>
<text text-anchor="middle" x="309" y="-37.05" font-family="Arial" font-size="11.00">Freier Informationsfluss &amp;</text>
<text text-anchor="middle" x="309" y="-23.55" font-family="Arial" font-size="11.00">Zwanglosigkeit</text>
</g>
<!-- Rules&#45;&gt;R3 -->
<g id="edge13" class="edge">
<title>Rules&#45;&gt;R3</title>
<path fill="none" stroke="#666666" d="M341.54,-234.56C346.21,-229.16 351.08,-223.04 355,-217 388.32,-165.63 405.71,-135.08 377,-81 372.34,-72.22 365.17,-64.81 357.2,-58.67"/>
<polygon fill="#666666" stroke="#666666" points="359.43,-55.95 349.21,-53.14 355.44,-61.71 359.43,-55.95"/>
</g>
<!-- R1&#45;&gt;R2 -->
<!-- R2&#45;&gt;R3 -->
<!-- Apel -->
<g id="node8" class="node">
<title>Apel</title>
<path fill="#d2b4de" stroke="black" d="M598.38,-474C598.38,-474 449.62,-474 449.62,-474 443.62,-474 437.62,-468 437.62,-462 437.62,-462 437.62,-437.5 437.62,-437.5 437.62,-431.5 443.62,-425.5 449.62,-425.5 449.62,-425.5 598.38,-425.5 598.38,-425.5 604.38,-425.5 610.38,-431.5 610.38,-437.5 610.38,-437.5 610.38,-462 610.38,-462 610.38,-468 604.38,-474 598.38,-474"/>
<text text-anchor="middle" x="524" y="-459.55" font-family="Arial" font-size="11.00">Karl&#45;Otto Apel:</text>
<text text-anchor="middle" x="524" y="-446.05" font-family="Arial" font-size="11.00">Performativer Selbstwiderspruch</text>
<text text-anchor="middle" x="524" y="-432.55" font-family="Arial" font-size="11.00">(Unhintergehbarkeit)</text>
</g>
<!-- Apel&#45;&gt;DE -->
<g id="edge15" class="edge">
<title>Apel&#45;&gt;DE</title>
<path fill="none" stroke="#666666" d="M524,-425.1C524,-414.19 524,-401.13 524,-389.61"/>
<polygon fill="#666666" stroke="#666666" points="527.5,-389.85 524,-379.85 520.5,-389.85 527.5,-389.85"/>
<text text-anchor="middle" x="545.38" y="-398" font-family="Arial" font-size="10.00">begründet</text>
</g>
<!-- Stakeholder -->
<g id="node10" class="node">
<title>Stakeholder</title>
<path fill="#fcf3cf" stroke="black" d="M599.5,-198C599.5,-198 448.5,-198 448.5,-198 442.5,-198 436.5,-192 436.5,-186 436.5,-186 436.5,-174 436.5,-174 436.5,-168 442.5,-162 448.5,-162 448.5,-162 599.5,-162 599.5,-162 605.5,-162 611.5,-168 611.5,-174 611.5,-174 611.5,-186 611.5,-186 611.5,-192 605.5,-198 599.5,-198"/>
<text text-anchor="middle" x="524" y="-183.05" font-family="Arial" font-size="11.00">Interessenabwägung aller</text>
<text text-anchor="middle" x="524" y="-169.55" font-family="Arial" font-size="11.00">Anspruchsgruppen (Stakeholder)</text>
</g>
<!-- Ulrich&#45;&gt;Stakeholder -->
<!-- Ulrich&#45;&gt;Stakeholder -->
<g id="edge17" class="edge">
<title>Ulrich&#45;&gt;Stakeholder</title>
<path fill="none" stroke="#666666" d="M529.88,-234.81C530.68,-227.14 530.93,-217.89 530.62,-209.24"/>
<polygon fill="#666666" stroke="#666666" points="534.13,-209.28 529.96,-199.54 527.15,-209.75 534.13,-209.28"/>
</g>
<!-- Real&#45;&gt;Incap -->
<!-- Incap&#45;&gt;Media -->
</g>
</svg>
