<?xml version="1.0" encoding="UTF-8" standalone="no"?>
<!DOCTYPE svg PUBLIC "-//W3C//DTD SVG 1.1//EN"
 "http://www.w3.org/Graphics/SVG/1.1/DTD/svg11.dtd">
<!-- Generated by graphviz version 12.2.1 (20241206.2353)
 -->
<!-- Pages: 1 -->
<svg width="708pt" height="425pt"
 viewBox="0.00 0.00 708.00 425.25" xmlns="http://www.w3.org/2000/svg" xmlns:xlink="http://www.w3.org/1999/xlink">
<g id="graph0" class="graph" transform="scale(1 1) rotate(0) translate(4 421.25)">
<polygon fill="white" stroke="none" points="-4,4 -4,-421.25 704,-421.25 704,4 -4,4"/>
<g id="clust1" class="cluster">
<title>cluster_basis</title>
<polygon fill="none" stroke="navy" stroke-dasharray="5,2" points="184,-266.75 184,-343.25 692,-343.25 692,-266.75 184,-266.75"/>
<text text-anchor="middle" x="438" y="-325.95" font-family="Times New Roman,serif" font-size="14.00">Grundlagen (Aristoteles)</text>
</g>
<g id="clust2" class="cluster">
<title>cluster_system</title>
<polygon fill="none" stroke="green" stroke-dasharray="5,2" points="383,-8 383,-236.75 663,-236.75 663,-8 383,-8"/>
<text text-anchor="middle" x="523" y="-219.45" font-family="Times New Roman,serif" font-size="14.00">Die Tugenden</text>
</g>
<g id="clust3" class="cluster">
<title>cluster_modern</title>
<polygon fill="none" stroke="orange" stroke-dasharray="5,2" points="8,-154 8,-343.25 176,-343.25 176,-154 8,-154"/>
<text text-anchor="middle" x="92" y="-325.95" font-family="Times New Roman,serif" font-size="14.00">Moderne &amp; Wirtschaft</text>
</g>
<!-- TE -->
<g id="node1" class="node">
<title>TE</title>
<path fill="#2c3e50" stroke="black" stroke-width="2" d="M333.38,-417.25C333.38,-417.25 214.62,-417.25 214.62,-417.25 208.62,-417.25 202.62,-411.25 202.62,-405.25 202.62,-405.25 202.62,-393.25 202.62,-393.25 202.62,-387.25 208.62,-381.25 214.62,-381.25 214.62,-381.25 333.38,-381.25 333.38,-381.25 339.38,-381.25 345.38,-387.25 345.38,-393.25 345.38,-393.25 345.38,-405.25 345.38,-405.25 345.38,-411.25 339.38,-417.25 333.38,-417.25"/>
<text text-anchor="middle" x="274" y="-402.3" font-family="Arial" font-size="11.00" fill="white">TUGENDETHIK</text>
<text text-anchor="middle" x="274" y="-388.8" font-family="Arial" font-size="11.00" fill="white">(Fokus auf den Charakter)</text>
</g>
<!-- Glück -->
<g id="node2" class="node">
<title>Glück</title>
<path fill="#aed6f1" stroke="black" d="M343.5,-310.75C343.5,-310.75 204.5,-310.75 204.5,-310.75 198.5,-310.75 192.5,-304.75 192.5,-298.75 192.5,-298.75 192.5,-286.75 192.5,-286.75 192.5,-280.75 198.5,-274.75 204.5,-274.75 204.5,-274.75 343.5,-274.75 343.5,-274.75 349.5,-274.75 355.5,-280.75 355.5,-286.75 355.5,-286.75 355.5,-298.75 355.5,-298.75 355.5,-304.75 349.5,-310.75 343.5,-310.75"/>
<text text-anchor="middle" x="274" y="-295.8" font-family="Arial" font-size="11.00">Eudaimonia</text>
<text text-anchor="middle" x="274" y="-282.3" font-family="Arial" font-size="11.00">(Höchstes Gut / Glückseligkeit)</text>
</g>
<!-- TE&#45;&gt;Glück -->
<g id="edge4" class="edge">
<title>TE&#45;&gt;Glück</title>
<path fill="none" stroke="black" d="M274,-380.52C274,-364.66 274,-341.13 274,-322.56"/>
<polygon fill="black" stroke="black" points="277.5,-322.73 274,-312.73 270.5,-322.73 277.5,-322.73"/>
<text text-anchor="middle" x="281.88" y="-353.75" font-family="Arial" font-size="10.00">Ziel</text>
</g>
<!-- Vernunft -->
<g id="node3" class="node">
<title>Vernunft</title>
<path fill="#aed6f1" stroke="black" d="M526.62,-310.75C526.62,-310.75 385.38,-310.75 385.38,-310.75 379.38,-310.75 373.38,-304.75 373.38,-298.75 373.38,-298.75 373.38,-286.75 373.38,-286.75 373.38,-280.75 379.38,-274.75 385.38,-274.75 385.38,-274.75 526.62,-274.75 526.62,-274.75 532.62,-274.75 538.62,-280.75 538.62,-286.75 538.62,-286.75 538.62,-298.75 538.62,-298.75 538.62,-304.75 532.62,-310.75 526.62,-310.75"/>
<text text-anchor="middle" x="456" y="-295.8" font-family="Arial" font-size="11.00">Vernunft (Logos)</text>
<text text-anchor="middle" x="456" y="-282.3" font-family="Arial" font-size="11.00">(Wesenszweck des Menschen)</text>
</g>
<!-- TE&#45;&gt;Vernunft -->
<g id="edge5" class="edge">
<title>TE&#45;&gt;Vernunft</title>
<path fill="none" stroke="black" d="M305.29,-380.29C335.87,-362.73 382.55,-335.92 415.85,-316.8"/>
<polygon fill="black" stroke="black" points="417.48,-319.9 424.41,-311.89 414,-313.83 417.48,-319.9"/>
<text text-anchor="middle" x="366.48" y="-353.75" font-family="Arial" font-size="10.00">Basis</text>
</g>
<!-- Kaufmann -->
<g id="node10" class="node">
<title>Kaufmann</title>
<path fill="#fcf3cf" stroke="black" d="M147.62,-310.75C147.62,-310.75 54.38,-310.75 54.38,-310.75 48.38,-310.75 42.38,-304.75 42.38,-298.75 42.38,-298.75 42.38,-286.75 42.38,-286.75 42.38,-280.75 48.38,-274.75 54.38,-274.75 54.38,-274.75 147.62,-274.75 147.62,-274.75 153.62,-274.75 159.62,-280.75 159.62,-286.75 159.62,-286.75 159.62,-298.75 159.62,-298.75 159.62,-304.75 153.62,-310.75 147.62,-310.75"/>
<text text-anchor="middle" x="101" y="-295.8" font-family="Arial" font-size="11.00">Modell des</text>
<text text-anchor="middle" x="101" y="-282.3" font-family="Arial" font-size="11.00">ehrbaren Kaufmanns</text>
</g>
<!-- TE&#45;&gt;Kaufmann -->
<g id="edge9" class="edge">
<title>TE&#45;&gt;Kaufmann</title>
<path fill="none" stroke="black" d="M226.62,-380.4C215.02,-375.39 202.83,-369.56 192,-363.25 169.62,-350.21 146.45,-332.44 129.09,-318.13"/>
<polygon fill="black" stroke="black" points="131.66,-315.71 121.74,-311.98 127.16,-321.08 131.66,-315.71"/>
<text text-anchor="middle" x="231" y="-353.75" font-family="Arial" font-size="10.00">Anwendung heute</text>
</g>
<!-- Dianoetisch -->
<g id="node5" class="node">
<title>Dianoetisch</title>
<path fill="#d5f5e3" stroke="black" d="M508.62,-204.25C508.62,-204.25 403.38,-204.25 403.38,-204.25 397.38,-204.25 391.38,-198.25 391.38,-192.25 391.38,-192.25 391.38,-180.25 391.38,-180.25 391.38,-174.25 397.38,-168.25 403.38,-168.25 403.38,-168.25 508.62,-168.25 508.62,-168.25 514.62,-168.25 520.62,-174.25 520.62,-180.25 520.62,-180.25 520.62,-192.25 520.62,-192.25 520.62,-198.25 514.62,-204.25 508.62,-204.25"/>
<text text-anchor="middle" x="456" y="-189.3" font-family="Arial" font-size="11.00">Dianoetische Tugenden</text>
<text text-anchor="middle" x="456" y="-175.8" font-family="Arial" font-size="11.00">(Verstandestugenden)</text>
</g>
<!-- Vernunft&#45;&gt;Dianoetisch -->
<g id="edge6" class="edge">
<title>Vernunft&#45;&gt;Dianoetisch</title>
<path fill="none" stroke="black" d="M456,-274.49C456,-258.61 456,-234.74 456,-215.99"/>
<polygon fill="black" stroke="black" points="459.5,-216.05 456,-206.05 452.5,-216.05 459.5,-216.05"/>
</g>
<!-- Ethisch -->
<g id="node6" class="node">
<title>Ethisch</title>
<path fill="#d5f5e3" stroke="black" d="M643.25,-204.25C643.25,-204.25 550.75,-204.25 550.75,-204.25 544.75,-204.25 538.75,-198.25 538.75,-192.25 538.75,-192.25 538.75,-180.25 538.75,-180.25 538.75,-174.25 544.75,-168.25 550.75,-168.25 550.75,-168.25 643.25,-168.25 643.25,-168.25 649.25,-168.25 655.25,-174.25 655.25,-180.25 655.25,-180.25 655.25,-192.25 655.25,-192.25 655.25,-198.25 649.25,-204.25 643.25,-204.25"/>
<text text-anchor="middle" x="597" y="-189.3" font-family="Arial" font-size="11.00">Ethische Tugenden</text>
<text text-anchor="middle" x="597" y="-175.8" font-family="Arial" font-size="11.00">(Charaktertugenden)</text>
</g>
<!-- Vernunft&#45;&gt;Ethisch -->
<g id="edge7" class="edge">
<title>Vernunft&#45;&gt;Ethisch</title>
<path fill="none" stroke="black" d="M479.6,-274.26C502.92,-256.98 538.77,-230.4 564.72,-211.17"/>
<polygon fill="black" stroke="black" points="566.63,-214.12 572.58,-205.35 562.46,-208.49 566.63,-214.12"/>
<text text-anchor="middle" x="547.68" y="-247.25" font-family="Arial" font-size="10.00">steuert Triebe</text>
</g>
<!-- Praxis -->
<g id="node4" class="node">
<title>Praxis</title>
<path fill="#aed6f1" stroke="black" d="M671.5,-310.75C671.5,-310.75 568.5,-310.75 568.5,-310.75 562.5,-310.75 556.5,-304.75 556.5,-298.75 556.5,-298.75 556.5,-286.75 556.5,-286.75 556.5,-280.75 562.5,-274.75 568.5,-274.75 568.5,-274.75 671.5,-274.75 671.5,-274.75 677.5,-274.75 683.5,-280.75 683.5,-286.75 683.5,-286.75 683.5,-298.75 683.5,-298.75 683.5,-304.75 677.5,-310.75 671.5,-310.75"/>
<text text-anchor="middle" x="620" y="-295.8" font-family="Arial" font-size="11.00">Praktische Philosophie</text>
<text text-anchor="middle" x="620" y="-282.3" font-family="Arial" font-size="11.00">(Übung &amp; Gewohnheit)</text>
</g>
<!-- Praxis&#45;&gt;Ethisch -->
<g id="edge8" class="edge">
<title>Praxis&#45;&gt;Ethisch</title>
<path fill="none" stroke="black" d="M616.2,-274.49C612.69,-258.54 607.4,-234.52 603.27,-215.72"/>
<polygon fill="black" stroke="black" points="606.7,-215.02 601.13,-206.01 599.86,-216.53 606.7,-215.02"/>
<text text-anchor="middle" x="652.78" y="-247.25" font-family="Arial" font-size="10.00">bildet durch Übung</text>
</g>
<!-- Mitte -->
<g id="node7" class="node">
<title>Mitte</title>
<polygon fill="#abebc6" stroke="black" stroke-width="2" points="651.5,-125 542.5,-125 542.5,-89 651.5,-89 651.5,-125"/>
<text text-anchor="middle" x="597" y="-110.05" font-family="Arial" font-size="11.00">Lehre von der Mitte</text>
<text text-anchor="middle" x="597" y="-96.55" font-family="Arial" font-size="11.00">(Mesotes)</text>
</g>
<!-- Ethisch&#45;&gt;Mitte -->
<g id="edge1" class="edge">
<title>Ethisch&#45;&gt;Mitte</title>
<path fill="none" stroke="black" d="M597,-168.11C597,-158.87 597,-147.23 597,-136.66"/>
<polygon fill="black" stroke="black" points="600.5,-136.88 597,-126.88 593.5,-136.88 600.5,-136.88"/>
</g>
<!-- Mangel -->
<g id="node8" class="node">
<title>Mangel</title>
<path fill="#fadbd8" stroke="black" d="M520.88,-52C520.88,-52 453.12,-52 453.12,-52 447.12,-52 441.12,-46 441.12,-40 441.12,-40 441.12,-28 441.12,-28 441.12,-22 447.12,-16 453.12,-16 453.12,-16 520.88,-16 520.88,-16 526.88,-16 532.88,-22 532.88,-28 532.88,-28 532.88,-40 532.88,-40 532.88,-46 526.88,-52 520.88,-52"/>
<text text-anchor="middle" x="487" y="-37.05" font-family="Arial" font-size="11.00">Extrem: Mangel</text>
<text text-anchor="middle" x="487" y="-23.55" font-family="Arial" font-size="11.00">(z.B. Feigheit)</text>
</g>
<!-- Mitte&#45;&gt;Mangel -->
<g id="edge2" class="edge">
<title>Mitte&#45;&gt;Mangel</title>
<path fill="none" stroke="black" d="M570.09,-88.63C553.05,-77.63 531.08,-63.45 514.01,-52.44"/>
</g>
<!-- Uebermass -->
<g id="node9" class="node">
<title>Uebermass</title>
<path fill="#fadbd8" stroke="black" d="M641.12,-52C641.12,-52 562.88,-52 562.88,-52 556.88,-52 550.88,-46 550.88,-40 550.88,-40 550.88,-28 550.88,-28 550.88,-22 556.88,-16 562.88,-16 562.88,-16 641.12,-16 641.12,-16 647.12,-16 653.12,-22 653.12,-28 653.12,-28 653.12,-40 653.12,-40 653.12,-46 647.12,-52 641.12,-52"/>
<text text-anchor="middle" x="602" y="-37.05" font-family="Arial" font-size="11.00">Extrem: Übermaß</text>
<text text-anchor="middle" x="602" y="-23.55" font-family="Arial" font-size="11.00">(z.B. Leichtsinn)</text>
</g>
<!-- Mitte&#45;&gt;Uebermass -->
<g id="edge3" class="edge">
<title>Mitte&#45;&gt;Uebermass</title>
<path fill="none" stroke="black" d="M598.21,-88.81C599,-77.65 600.02,-63.16 600.8,-52.03"/>
</g>
<!-- Kritik -->
<g id="node11" class="node">
<title>Kritik</title>
<path fill="#f5b7b1" stroke="black" d="M156.25,-210.5C156.25,-210.5 27.75,-210.5 27.75,-210.5 21.75,-210.5 15.75,-204.5 15.75,-198.5 15.75,-198.5 15.75,-174 15.75,-174 15.75,-168 21.75,-162 27.75,-162 27.75,-162 156.25,-162 156.25,-162 162.25,-162 168.25,-168 168.25,-174 168.25,-174 168.25,-198.5 168.25,-198.5 168.25,-204.5 162.25,-210.5 156.25,-210.5"/>
<text text-anchor="middle" x="92" y="-196.05" font-family="Arial" font-size="11.00">Kritik:</text>
<text text-anchor="middle" x="92" y="-182.55" font-family="Arial" font-size="11.00">Systemische Sachzwänge &amp;</text>
<text text-anchor="middle" x="92" y="-169.05" font-family="Arial" font-size="11.00">Anonymität</text>
</g>
<!-- Kaufmann&#45;&gt;Kritik -->
<g id="edge10" class="edge">
<title>Kaufmann&#45;&gt;Kritik</title>
<path fill="none" stroke="black" d="M99.51,-274.49C98.29,-260.3 96.52,-239.72 95,-222.11"/>
<polygon fill="black" stroke="black" points="98.5,-221.96 94.16,-212.3 91.53,-222.56 98.5,-221.96"/>
<text text-anchor="middle" x="133.83" y="-247.25" font-family="Arial" font-size="10.00">Herausforderung</text>
</g>
</g>
</svg>
