<?xml version="1.0" encoding="UTF-8" standalone="no"?>
<!DOCTYPE svg PUBLIC "-//W3C//DTD SVG 1.1//EN"
 "http://www.w3.org/Graphics/SVG/1.1/DTD/svg11.dtd">
<!-- Generated by graphviz version 12.2.1 (20241206.2353)
 -->
<!-- Pages: 1 -->
<svg width="864pt" height="321pt"
 viewBox="0.00 0.00 864.00 321.47" xmlns="http://www.w3.org/2000/svg" xmlns:xlink="http://www.w3.org/1999/xlink">
<g id="graph0" class="graph" transform="scale(0.74935 0.74935) rotate(0) translate(4 425)">
<polygon fill="white" stroke="none" points="-4,4 -4,-425 1149,-425 1149,4 -4,4"/>
<g id="clust1" class="cluster">
<title>cluster_social</title>
<polygon fill="none" stroke="#3498db" points="8,-8 8,-248.25 216,-248.25 216,-8 8,-8"/>
<text text-anchor="middle" x="112" y="-230.95" font-family="Verdana-Bold" font-size="14.00">Soziale &amp; Relationale Ebene</text>
</g>
<g id="clust2" class="cluster">
<title>cluster_indiv</title>
<polygon fill="none" stroke="#27ae60" points="224,-97.25 224,-248 604,-248 604,-97.25 224,-97.25"/>
<text text-anchor="middle" x="414" y="-230.7" font-family="Verdana-Bold" font-size="14.00">Konstitution des Handlungsvermögens</text>
</g>
<g id="clust3" class="cluster">
<title>cluster_econ</title>
<polygon fill="none" stroke="#f1c40f" points="612,-8 612,-248.25 931,-248.25 931,-8 612,-8"/>
<text text-anchor="middle" x="771.5" y="-230.95" font-family="Verdana-Bold" font-size="14.00">Wirtschaftlicher Koordinationsmechanismus</text>
</g>
<g id="clust4" class="cluster">
<title>cluster_stab</title>
<polygon fill="none" stroke="#e74c3c" points="939,-97 939,-248.25 1137,-248.25 1137,-97 939,-97"/>
<text text-anchor="middle" x="1038" y="-230.95" font-family="Verdana-Bold" font-size="14.00">Gesellschaftliche Stabilität</text>
</g>
<!-- V -->
<g id="node1" class="node">
<title>V</title>
<polygon fill="#2c3e50" stroke="none" points="369,-294.75 369,-417 639,-417 639,-294.75 369,-294.75"/>
<polygon fill="none" stroke="black" points="369,-294.75 369,-417 639,-417 639,-294.75 369,-294.75"/>
<text text-anchor="start" x="420" y="-351.8" font-family="Verdana" font-weight="bold" font-size="16.00" fill="white">VERANTWORTUNG</text>
</g>
<!-- S1 -->
<g id="node2" class="node">
<title>S1</title>
<polygon fill="#aed6f1" stroke="black" points="208.38,-215 35.62,-215 35.62,-178.5 208.38,-178.5 208.38,-215"/>
<text text-anchor="middle" x="122" y="-200.55" font-family="Verdana" font-size="11.00">Gegenseitige Rechtfertigung</text>
<text text-anchor="middle" x="122" y="-186.3" font-family="Verdana" font-size="11.00">&amp; Rechenschaft</text>
</g>
<!-- V&#45;&gt;S1 -->
<g id="edge1" class="edge">
<title>V&#45;&gt;S1</title>
<path fill="none" stroke="#7f7f7f" d="M361.12,-304.94C315.57,-288.03 265.25,-268.32 220,-248.25 201.13,-239.88 180.77,-229.6 163.52,-220.51"/>
<polygon fill="#7f7f7f" stroke="#7f7f7f" points="154.84,-215.89 165.78,-216.61 158.18,-217.66 163.67,-220.58 163.67,-220.58 163.67,-220.58 158.18,-217.66 161.55,-224.56 154.84,-215.89"/>
<text text-anchor="middle" x="304.17" y="-259.45" font-family="Times New Roman,serif" font-size="14.00">fungiert als</text>
</g>
<!-- I1 -->
<g id="node5" class="node">
<title>I1</title>
<polygon fill="#abebc6" stroke="black" points="393.75,-214.75 232.25,-214.75 232.25,-178.75 393.75,-178.75 393.75,-214.75"/>
<text text-anchor="middle" x="313" y="-193.43" font-family="Verdana" font-size="11.00">Rationale Selbststeuerung</text>
</g>
<!-- V&#45;&gt;I1 -->
<g id="edge4" class="edge">
<title>V&#45;&gt;I1</title>
<path fill="none" stroke="#7f7f7f" d="M426.31,-290.97C396.77,-266.66 364.87,-240.42 342.47,-221.99"/>
<polygon fill="#7f7f7f" stroke="#7f7f7f" points="335.02,-215.86 345.6,-218.74 337.94,-218.27 342.74,-222.22 342.74,-222.22 342.74,-222.22 337.94,-218.27 339.88,-225.69 335.02,-215.86"/>
<text text-anchor="middle" x="432.4" y="-259.45" font-family="Times New Roman,serif" font-size="14.00">ermöglicht</text>
</g>
<!-- I3 -->
<g id="node7" class="node">
<title>I3</title>
<polygon fill="#abebc6" stroke="black" points="596.38,-214.75 411.62,-214.75 411.62,-178.75 596.38,-178.75 596.38,-214.75"/>
<text text-anchor="middle" x="504" y="-193.43" font-family="Verdana" font-size="11.00">Bewältigung von Ungewissheit</text>
</g>
<!-- V&#45;&gt;I3 -->
<g id="edge6" class="edge">
<title>V&#45;&gt;I3</title>
<path fill="none" stroke="#7f7f7f" d="M504,-290.97C504,-268.49 504,-244.36 504,-226.28"/>
<polygon fill="#7f7f7f" stroke="#7f7f7f" points="504,-216.31 508.5,-226.31 504,-220.09 504,-226.31 504,-226.31 504,-226.31 504,-220.09 499.5,-226.31 504,-216.31"/>
</g>
<!-- E1 -->
<g id="node8" class="node">
<title>E1</title>
<polygon fill="#fcf3cf" stroke="black" points="734.25,-215 629.75,-215 629.75,-178.5 734.25,-178.5 734.25,-215"/>
<text text-anchor="middle" x="682" y="-200.55" font-family="Verdana" font-size="11.00">Korrektiv gegen</text>
<text text-anchor="middle" x="682" y="-186.3" font-family="Verdana" font-size="11.00">Marktversagen</text>
</g>
<!-- V&#45;&gt;E1 -->
<g id="edge7" class="edge">
<title>V&#45;&gt;E1</title>
<path fill="none" stroke="#7f7f7f" d="M576.4,-290.97C603.52,-267.03 632.77,-241.21 653.59,-222.83"/>
<polygon fill="#7f7f7f" stroke="#7f7f7f" points="661.06,-216.24 656.54,-226.23 658.22,-218.74 653.56,-222.85 653.56,-222.85 653.56,-222.85 658.22,-218.74 650.58,-219.48 661.06,-216.24"/>
<text text-anchor="middle" x="632.18" y="-259.45" font-family="Times New Roman,serif" font-size="14.00">steuert</text>
</g>
<!-- ST1 -->
<g id="node11" class="node">
<title>ST1</title>
<polygon fill="#fadbd8" stroke="black" points="1077,-215 947,-215 947,-178.5 1077,-178.5 1077,-215"/>
<text text-anchor="middle" x="1012" y="-200.55" font-family="Verdana" font-size="11.00">Ausgleich von</text>
<text text-anchor="middle" x="1012" y="-186.3" font-family="Verdana" font-size="11.00">Interessenkonflikten</text>
</g>
<!-- V&#45;&gt;ST1 -->
<g id="edge10" class="edge">
<title>V&#45;&gt;ST1</title>
<path fill="none" stroke="#7f7f7f" d="M646.72,-332.13C732.61,-315.41 842.8,-288.49 935,-248.25 950.95,-241.29 967.26,-231.11 980.74,-221.72"/>
<polygon fill="#7f7f7f" stroke="#7f7f7f" points="988.59,-216.1 983.08,-225.58 985.52,-218.3 980.46,-221.92 980.46,-221.92 980.46,-221.92 985.52,-218.3 977.84,-218.26 988.59,-216.1"/>
<text text-anchor="middle" x="930.98" y="-259.45" font-family="Times New Roman,serif" font-size="14.00">sichert</text>
</g>
<!-- S2 -->
<g id="node3" class="node">
<title>S2</title>
<polygon fill="#aed6f1" stroke="black" points="181,-141.5 63,-141.5 63,-105 181,-105 181,-141.5"/>
<text text-anchor="middle" x="122" y="-127.05" font-family="Verdana" font-size="11.00">Anerkennung als</text>
<text text-anchor="middle" x="122" y="-112.8" font-family="Verdana" font-size="11.00">autonomes Wesen</text>
</g>
<!-- S1&#45;&gt;S2 -->
<g id="edge2" class="edge">
<title>S1&#45;&gt;S2</title>
<path fill="none" stroke="#7f7f7f" stroke-dasharray="5,2" d="M122,-178.08C122,-170.46 122,-161.35 122,-152.81"/>
<polygon fill="#7f7f7f" stroke="#7f7f7f" points="122,-142.94 126.5,-152.94 122,-146.72 122,-152.94 122,-152.94 122,-152.94 122,-146.72 117.5,-152.94 122,-142.94"/>
</g>
<!-- S3 -->
<g id="node4" class="node">
<title>S3</title>
<polygon fill="#aed6f1" stroke="black" points="166,-52.5 78,-52.5 78,-16 166,-16 166,-52.5"/>
<text text-anchor="middle" x="122" y="-38.05" font-family="Verdana" font-size="11.00">Respekt vs.</text>
<text text-anchor="middle" x="122" y="-23.8" font-family="Verdana" font-size="11.00">Objektstatus</text>
</g>
<!-- S2&#45;&gt;S3 -->
<g id="edge3" class="edge">
<title>S2&#45;&gt;S3</title>
<path fill="none" stroke="#7f7f7f" d="M122,-104.64C122,-92.97 122,-77.38 122,-63.94"/>
<polygon fill="#7f7f7f" stroke="#7f7f7f" points="122,-54.05 126.5,-64.05 122,-57.83 122,-64.05 122,-64.05 122,-64.05 122,-57.83 117.5,-64.05 122,-54.05"/>
</g>
<!-- I2 -->
<g id="node6" class="node">
<title>I2</title>
<polygon fill="#abebc6" stroke="black" points="390,-141.25 236,-141.25 236,-105.25 390,-105.25 390,-141.25"/>
<text text-anchor="middle" x="313" y="-119.92" font-family="Verdana" font-size="11.00">Moralische Urteilsbildung</text>
</g>
<!-- I1&#45;&gt;I2 -->
<g id="edge5" class="edge">
<title>I1&#45;&gt;I2</title>
<path fill="none" stroke="#7f7f7f" d="M313,-178.44C313,-170.68 313,-161.33 313,-152.59"/>
<polygon fill="#7f7f7f" stroke="#7f7f7f" points="313,-142.87 317.5,-152.86 313,-146.65 313,-152.87 313,-152.87 313,-152.87 313,-146.65 308.5,-152.87 313,-142.87"/>
</g>
<!-- E3 -->
<g id="node10" class="node">
<title>E3</title>
<polygon fill="#fcf3cf" stroke="black" points="765.88,-141.25 620.12,-141.25 620.12,-105.25 765.88,-105.25 765.88,-141.25"/>
<text text-anchor="middle" x="693" y="-119.92" font-family="Verdana" font-size="11.00">Vertrauen &amp; Reputation</text>
</g>
<!-- E1&#45;&gt;E3 -->
<g id="edge9" class="edge">
<title>E1&#45;&gt;E3</title>
<path fill="none" stroke="#7f7f7f" d="M684.72,-178.08C685.9,-170.37 687.32,-161.14 688.65,-152.52"/>
<polygon fill="#7f7f7f" stroke="#7f7f7f" points="690.13,-142.93 693.05,-153.49 689.55,-146.66 688.61,-152.81 688.61,-152.81 688.61,-152.81 689.55,-146.66 684.16,-152.12 690.13,-142.93"/>
</g>
<!-- E2 -->
<g id="node9" class="node">
<title>E2</title>
<polygon fill="#fcf3cf" stroke="black" points="755,-52.5 631,-52.5 631,-16 755,-16 755,-52.5"/>
<text text-anchor="middle" x="693" y="-38.05" font-family="Verdana" font-size="11.00">Senkung von</text>
<text text-anchor="middle" x="693" y="-23.8" font-family="Verdana" font-size="11.00">Transaktionskosten</text>
</g>
<!-- E3&#45;&gt;E2 -->
<g id="edge8" class="edge">
<title>E3&#45;&gt;E2</title>
<path fill="none" stroke="#7f7f7f" d="M693,-105.06C693,-93.42 693,-77.75 693,-64.2"/>
<polygon fill="#7f7f7f" stroke="#7f7f7f" points="693,-54.22 697.5,-64.22 693,-58 693,-64.22 693,-64.22 693,-64.22 693,-58 688.5,-64.22 693,-54.22"/>
<text text-anchor="middle" x="731.25" y="-73.7" font-family="Times New Roman,serif" font-size="14.00">Mechanismus</text>
</g>
<!-- ST2 -->
<g id="node12" class="node">
<title>ST2</title>
<polygon fill="#fadbd8" stroke="black" points="1073.62,-141.5 950.38,-141.5 950.38,-105 1073.62,-105 1073.62,-141.5"/>
<text text-anchor="middle" x="1012" y="-127.05" font-family="Verdana" font-size="11.00">Wiedergutmachung</text>
<text text-anchor="middle" x="1012" y="-112.8" font-family="Verdana" font-size="11.00">&amp; Korrektur</text>
</g>
<!-- ST1&#45;&gt;ST2 -->
<g id="edge11" class="edge">
<title>ST1&#45;&gt;ST2</title>
<path fill="none" stroke="#7f7f7f" d="M1012,-178.08C1012,-170.46 1012,-161.35 1012,-152.81"/>
<polygon fill="#7f7f7f" stroke="#7f7f7f" points="1012,-142.94 1016.5,-152.94 1012,-146.72 1012,-152.94 1012,-152.94 1012,-152.94 1012,-146.72 1007.5,-152.94 1012,-142.94"/>
</g>
</g>
</svg>
