<?xml version="1.0" encoding="UTF-8" standalone="no"?>
<!DOCTYPE svg PUBLIC "-//W3C//DTD SVG 1.1//EN"
 "http://www.w3.org/Graphics/SVG/1.1/DTD/svg11.dtd">
<!-- Generated by graphviz version 12.2.1 (20241206.2353)
 -->
<!-- Pages: 1 -->
<svg width="615pt" height="311pt"
 viewBox="0.00 0.00 614.87 311.00" xmlns="http://www.w3.org/2000/svg" xmlns:xlink="http://www.w3.org/1999/xlink">
<g id="graph0" class="graph" transform="scale(1 1) rotate(0) translate(4 307)">
<polygon fill="white" stroke="none" points="-4,4 -4,-307 610.87,-307 610.87,4 -4,4"/>
<!-- Ethik -->
<g id="node1" class="node">
<title>Ethik</title>
<path fill="#aed6f1" stroke="black" stroke-width="2" d="M439.5,-132.5C439.5,-132.5 307.25,-132.5 307.25,-132.5 301.25,-132.5 295.25,-126.5 295.25,-120.5 295.25,-120.5 295.25,-108.5 295.25,-108.5 295.25,-102.5 301.25,-96.5 307.25,-96.5 307.25,-96.5 439.5,-96.5 439.5,-96.5 445.5,-96.5 451.5,-102.5 451.5,-108.5 451.5,-108.5 451.5,-120.5 451.5,-120.5 451.5,-126.5 445.5,-132.5 439.5,-132.5"/>
<text text-anchor="middle" x="373.38" y="-117.55" font-family="Arial" font-size="11.00">ETHIK</text>
<text text-anchor="middle" x="373.38" y="-104.05" font-family="Arial" font-size="11.00">(Wissenschaft von der Moral)</text>
</g>
<!-- Reflexion -->
<g id="node2" class="node">
<title>Reflexion</title>
<ellipse fill="#ebf5fb" stroke="black" cx="361.38" cy="-194.25" rx="95.11" ry="24.75"/>
<text text-anchor="middle" x="361.38" y="-197.3" font-family="Arial" font-size="11.00">Methodische Reflexion</text>
<text text-anchor="middle" x="361.38" y="-183.8" font-family="Arial" font-size="11.00">(Begründung &amp; Prüfung)</text>
</g>
<!-- Ethik&#45;&gt;Reflexion -->
<g id="edge4" class="edge">
<title>Ethik&#45;&gt;Reflexion</title>
<path fill="none" stroke="black" stroke-dasharray="5,2" d="M370.65,-133.14C369.01,-143.81 366.89,-157.54 365.09,-169.19"/>
</g>
<!-- Moral -->
<g id="node3" class="node">
<title>Moral</title>
<path fill="#f9e79f" stroke="black" d="M356.5,-303C356.5,-303 206.25,-303 206.25,-303 200.25,-303 194.25,-297 194.25,-291 194.25,-291 194.25,-279 194.25,-279 194.25,-273 200.25,-267 206.25,-267 206.25,-267 356.5,-267 356.5,-267 362.5,-267 368.5,-273 368.5,-279 368.5,-279 368.5,-291 368.5,-291 368.5,-297 362.5,-303 356.5,-303"/>
<text text-anchor="middle" x="281.38" y="-288.05" font-family="Arial" font-size="11.00">MORAL</text>
<text text-anchor="middle" x="281.38" y="-274.55" font-family="Arial" font-size="11.00">(Gesellschaftliches Regelsystem)</text>
</g>
<!-- Reflexion&#45;&gt;Moral -->
<g id="edge5" class="edge">
<title>Reflexion&#45;&gt;Moral</title>
<path fill="none" stroke="blue" d="M340.36,-218.57C329.3,-230.83 315.72,-245.9 304.38,-258.48"/>
<polygon fill="blue" stroke="blue" points="302.05,-255.83 297.96,-265.6 307.25,-260.52 302.05,-255.83"/>
<text text-anchor="middle" x="369" y="-239.5" font-family="Arial" font-size="10.00">hinterfragt / begründet</text>
</g>
<!-- Moral&#45;&gt;Ethik -->
<g id="edge3" class="edge">
<title>Moral&#45;&gt;Ethik</title>
<path fill="none" stroke="black" d="M368.66,-278.23C406.63,-270.53 446.67,-253.95 465.38,-219 475.76,-199.6 476.31,-188.59 465.38,-169.5 458.04,-156.69 446.36,-146.63 433.75,-138.84"/>
<polygon fill="black" stroke="black" points="435.72,-135.93 425.29,-134.06 432.28,-142.03 435.72,-135.93"/>
<text text-anchor="middle" x="540.12" y="-190.75" font-family="Arial" font-size="10.00">ist Forschungsgegenstand von</text>
</g>
<!-- Werte -->
<g id="node4" class="node">
<title>Werte</title>
<path fill="lightgrey" stroke="none" d="M154.75,-212.25C154.75,-212.25 12,-212.25 12,-212.25 6,-212.25 0,-206.25 0,-200.25 0,-200.25 0,-188.25 0,-188.25 0,-182.25 6,-176.25 12,-176.25 12,-176.25 154.75,-176.25 154.75,-176.25 160.75,-176.25 166.75,-182.25 166.75,-188.25 166.75,-188.25 166.75,-200.25 166.75,-200.25 166.75,-206.25 160.75,-212.25 154.75,-212.25"/>
<text text-anchor="middle" x="83.38" y="-197.3" font-family="Arial" font-size="11.00" fill="#7d6608">Werte</text>
<text text-anchor="middle" x="83.38" y="-183.8" font-family="Arial" font-size="11.00" fill="#7d6608">(Gerechtigkeit, Freiheit, Würde)</text>
</g>
<!-- Werte&#45;&gt;Moral -->
<g id="edge6" class="edge">
<title>Werte&#45;&gt;Moral</title>
<path fill="none" stroke="black" stroke-dasharray="1,5" d="M114.17,-212.18C134.86,-223.26 162.91,-237.73 188.38,-249 199.02,-253.71 210.5,-258.36 221.66,-262.67"/>
<polygon fill="black" stroke="black" points="220.2,-265.86 230.79,-266.14 222.69,-259.31 220.2,-265.86"/>
</g>
<!-- Sitte -->
<g id="node5" class="node">
<title>Sitte</title>
<path fill="#fad7a0" stroke="black" d="M264.75,-132.5C264.75,-132.5 140,-132.5 140,-132.5 134,-132.5 128,-126.5 128,-120.5 128,-120.5 128,-108.5 128,-108.5 128,-102.5 134,-96.5 140,-96.5 140,-96.5 264.75,-96.5 264.75,-96.5 270.75,-96.5 276.75,-102.5 276.75,-108.5 276.75,-108.5 276.75,-120.5 276.75,-120.5 276.75,-126.5 270.75,-132.5 264.75,-132.5"/>
<text text-anchor="middle" x="202.38" y="-117.55" font-family="Arial" font-size="11.00">SITTE</text>
<text text-anchor="middle" x="202.38" y="-104.05" font-family="Arial" font-size="11.00">(Gelebte Praxis &amp; Tradition)</text>
</g>
<!-- Sitte&#45;&gt;Moral -->
<g id="edge1" class="edge">
<title>Sitte&#45;&gt;Moral</title>
<path fill="none" stroke="black" d="M200.27,-132.99C198.5,-154.42 198.07,-191.29 211.62,-219 219.37,-234.82 232.73,-248.73 245.7,-259.57"/>
<polygon fill="black" stroke="black" points="243.34,-262.17 253.35,-265.63 247.69,-256.68 243.34,-262.17"/>
<text text-anchor="middle" x="234.5" y="-190.75" font-family="Arial" font-size="10.00">basiert auf</text>
</g>
<!-- Praxis -->
<g id="node6" class="node">
<title>Praxis</title>
<path fill="lightgrey" stroke="none" d="M260.25,-42.25C260.25,-42.25 144.5,-42.25 144.5,-42.25 138.5,-42.25 132.5,-36.25 132.5,-30.25 132.5,-30.25 132.5,-18.25 132.5,-18.25 132.5,-12.25 138.5,-6.25 144.5,-6.25 144.5,-6.25 260.25,-6.25 260.25,-6.25 266.25,-6.25 272.25,-12.25 272.25,-18.25 272.25,-18.25 272.25,-30.25 272.25,-30.25 272.25,-36.25 266.25,-42.25 260.25,-42.25"/>
<text text-anchor="middle" x="202.38" y="-27.3" font-family="Arial" font-size="11.00" fill="#7e5109">Uninterfragte Gewohnheit</text>
<text text-anchor="middle" x="202.38" y="-13.8" font-family="Arial" font-size="11.00" fill="#7e5109">(Konventionen)</text>
</g>
<!-- Praxis&#45;&gt;Sitte -->
<g id="edge2" class="edge">
<title>Praxis&#45;&gt;Sitte</title>
<path fill="none" stroke="black" stroke-dasharray="1,5" d="M202.38,-41.85C202.38,-53.94 202.38,-70.63 202.38,-84.85"/>
<polygon fill="black" stroke="black" points="198.88,-84.56 202.38,-94.56 205.88,-84.56 198.88,-84.56"/>
</g>
<!-- Ethos -->
<g id="node7" class="node">
<title>Ethos</title>
<path fill="#d5f5e3" stroke="black" d="M415.38,-48.5C415.38,-48.5 309.38,-48.5 309.38,-48.5 303.38,-48.5 297.38,-42.5 297.38,-36.5 297.38,-36.5 297.38,-12 297.38,-12 297.38,-6 303.38,0 309.38,0 309.38,0 415.38,0 415.38,0 421.38,0 427.38,-6 427.38,-12 427.38,-12 427.38,-36.5 427.38,-36.5 427.38,-42.5 421.38,-48.5 415.38,-48.5"/>
<text text-anchor="middle" x="362.38" y="-34.05" font-family="Arial" font-size="11.00">ETHOS</text>
<text text-anchor="middle" x="362.38" y="-20.55" font-family="Arial" font-size="11.00">(Individuelle Maximen &amp;</text>
<text text-anchor="middle" x="362.38" y="-7.05" font-family="Arial" font-size="11.00">Selbstverpflichtung)</text>
</g>
<!-- Ethos&#45;&gt;Ethik -->
<g id="edge8" class="edge">
<title>Ethos&#45;&gt;Ethik</title>
<path fill="none" stroke="black" stroke-dasharray="5,2" d="M365.32,-48.9C366.68,-59.81 368.31,-72.87 369.75,-84.39"/>
<polygon fill="black" stroke="black" points="366.25,-84.68 370.97,-94.17 373.2,-83.81 366.25,-84.68"/>
<text text-anchor="middle" x="399.99" y="-69" font-family="Arial" font-size="10.00">reflektiert über</text>
</g>
<!-- Ethos&#45;&gt;Sitte -->
<g id="edge7" class="edge">
<title>Ethos&#45;&gt;Sitte</title>
<path fill="none" stroke="black" d="M286.58,-49.12C274.75,-54.12 262.96,-59.92 252.38,-66.5 242.87,-72.42 233.6,-80.33 225.68,-87.96"/>
<polygon fill="black" stroke="black" points="287.59,-52.49 295.55,-45.5 284.97,-46 287.59,-52.49"/>
<polygon fill="black" stroke="black" points="223.29,-85.4 218.73,-94.97 228.26,-90.33 223.29,-85.4"/>
<text text-anchor="middle" x="307.88" y="-69" font-family="Arial" font-size="10.00">prägt / wird geprägt durch</text>
</g>
</g>
</svg>
