<?xml version="1.0" encoding="UTF-8" standalone="no"?>
<!DOCTYPE svg PUBLIC "-//W3C//DTD SVG 1.1//EN"
 "http://www.w3.org/Graphics/SVG/1.1/DTD/svg11.dtd">
<!-- Generated by graphviz version 12.2.1 (20241206.2353)
 -->
<!-- Pages: 1 -->
<svg width="656pt" height="305pt"
 viewBox="0.00 0.00 655.50 304.50" xmlns="http://www.w3.org/2000/svg" xmlns:xlink="http://www.w3.org/1999/xlink">
<g id="graph0" class="graph" transform="scale(1 1) rotate(0) translate(4 300.5)">
<polygon fill="white" stroke="none" points="-4,4 -4,-300.5 651.5,-300.5 651.5,4 -4,4"/>
<g id="clust1" class="cluster">
<title>cluster_ebenen</title>
<polygon fill="none" stroke="gray" stroke-dasharray="5,2" points="8,-157 8,-233.5 535,-233.5 535,-157 8,-157"/>
<text text-anchor="middle" x="271.5" y="-216.2" font-family="Times New Roman,serif" font-size="14.00">Analyseebenen</text>
</g>
<!-- WE -->
<g id="node1" class="node">
<title>WE</title>
<path fill="#2c3e50" stroke="black" stroke-width="2" d="M472.12,-296.5C472.12,-296.5 309.88,-296.5 309.88,-296.5 303.88,-296.5 297.88,-290.5 297.88,-284.5 297.88,-284.5 297.88,-272.5 297.88,-272.5 297.88,-266.5 303.88,-260.5 309.88,-260.5 309.88,-260.5 472.12,-260.5 472.12,-260.5 478.12,-260.5 484.12,-266.5 484.12,-272.5 484.12,-272.5 484.12,-284.5 484.12,-284.5 484.12,-290.5 478.12,-296.5 472.12,-296.5"/>
<text text-anchor="middle" x="391" y="-281.55" font-family="Arial" font-size="11.00" fill="white">Wirtschaftsethik</text>
<text text-anchor="middle" x="391" y="-268.05" font-family="Arial" font-size="11.00" fill="white">(Reflexion moralischer Grundlagen)</text>
</g>
<!-- Macro -->
<g id="node2" class="node">
<title>Macro</title>
<path fill="#aed6f1" stroke="black" d="M155.5,-201C155.5,-201 28.5,-201 28.5,-201 22.5,-201 16.5,-195 16.5,-189 16.5,-189 16.5,-177 16.5,-177 16.5,-171 22.5,-165 28.5,-165 28.5,-165 155.5,-165 155.5,-165 161.5,-165 167.5,-171 167.5,-177 167.5,-177 167.5,-189 167.5,-189 167.5,-195 161.5,-201 155.5,-201"/>
<text text-anchor="middle" x="92" y="-186.05" font-family="Arial" font-size="11.00">Makroebene</text>
<text text-anchor="middle" x="92" y="-172.55" font-family="Arial" font-size="11.00">(Wirtschaftsordnung / Staat)</text>
</g>
<!-- WE&#45;&gt;Macro -->
<g id="edge1" class="edge">
<title>WE&#45;&gt;Macro</title>
<path fill="none" stroke="black" d="M296.96,-264.95C258.92,-258.15 215.09,-248.06 177,-233.5 159.47,-226.8 141.32,-216.73 126.32,-207.41"/>
<polygon fill="black" stroke="black" points="128.54,-204.68 118.23,-202.26 124.78,-210.58 128.54,-204.68"/>
</g>
<!-- Meso -->
<g id="node3" class="node">
<title>Meso</title>
<path fill="#aed6f1" stroke="black" d="M360.5,-201C360.5,-201 197.5,-201 197.5,-201 191.5,-201 185.5,-195 185.5,-189 185.5,-189 185.5,-177 185.5,-177 185.5,-171 191.5,-165 197.5,-165 197.5,-165 360.5,-165 360.5,-165 366.5,-165 372.5,-171 372.5,-177 372.5,-177 372.5,-189 372.5,-189 372.5,-195 366.5,-201 360.5,-201"/>
<text text-anchor="middle" x="279" y="-186.05" font-family="Arial" font-size="11.00">Mesoebene</text>
<text text-anchor="middle" x="279" y="-172.55" font-family="Arial" font-size="11.00">(Unternehmensethik / Organisation)</text>
</g>
<!-- WE&#45;&gt;Meso -->
<g id="edge2" class="edge">
<title>WE&#45;&gt;Meso</title>
<path fill="none" stroke="black" d="M369.67,-259.69C352.36,-245.24 327.75,-224.7 308.54,-208.66"/>
<polygon fill="black" stroke="black" points="310.95,-206.12 301.03,-202.39 306.47,-211.49 310.95,-206.12"/>
</g>
<!-- Micro -->
<g id="node4" class="node">
<title>Micro</title>
<path fill="#aed6f1" stroke="black" d="M515.38,-201C515.38,-201 402.62,-201 402.62,-201 396.62,-201 390.62,-195 390.62,-189 390.62,-189 390.62,-177 390.62,-177 390.62,-171 396.62,-165 402.62,-165 402.62,-165 515.38,-165 515.38,-165 521.38,-165 527.38,-171 527.38,-177 527.38,-177 527.38,-189 527.38,-189 527.38,-195 521.38,-201 515.38,-201"/>
<text text-anchor="middle" x="459" y="-186.05" font-family="Arial" font-size="11.00">Mikroebene</text>
<text text-anchor="middle" x="459" y="-172.55" font-family="Arial" font-size="11.00">(Individualethik / Akteure)</text>
</g>
<!-- WE&#45;&gt;Micro -->
<g id="edge3" class="edge">
<title>WE&#45;&gt;Micro</title>
<path fill="none" stroke="black" d="M403.79,-259.91C413.92,-245.98 428.24,-226.3 439.75,-210.47"/>
<polygon fill="black" stroke="black" points="442.56,-212.56 445.61,-202.42 436.89,-208.44 442.56,-212.56"/>
</g>
<!-- Ulrich -->
<g id="node6" class="node">
<title>Ulrich</title>
<path fill="#d5f5e3" stroke="black" d="M635.5,-118.5C635.5,-118.5 514.5,-118.5 514.5,-118.5 508.5,-118.5 502.5,-112.5 502.5,-106.5 502.5,-106.5 502.5,-94.5 502.5,-94.5 502.5,-88.5 508.5,-82.5 514.5,-82.5 514.5,-82.5 635.5,-82.5 635.5,-82.5 641.5,-82.5 647.5,-88.5 647.5,-94.5 647.5,-94.5 647.5,-106.5 647.5,-106.5 647.5,-112.5 641.5,-118.5 635.5,-118.5"/>
<text text-anchor="middle" x="575" y="-103.55" font-family="Arial" font-size="11.00">Integrative Wirtschaftsethik</text>
<text text-anchor="middle" x="575" y="-90.05" font-family="Arial" font-size="11.00">(Peter Ulrich)</text>
</g>
<!-- WE&#45;&gt;Ulrich -->
<g id="edge5" class="edge">
<title>WE&#45;&gt;Ulrich</title>
<path fill="none" stroke="black" d="M484.96,-264.95C504.94,-258.38 524.38,-248.45 539,-233.5 566.14,-205.73 573.3,-159.6 574.93,-129.88"/>
<polygon fill="black" stroke="black" points="578.42,-130.25 575.27,-120.14 571.42,-130.01 578.42,-130.25"/>
<text text-anchor="middle" x="606.86" y="-179.7" font-family="Arial" font-size="9.00">Kritische Prüfung</text>
</g>
<!-- Homann -->
<g id="node5" class="node">
<title>Homann</title>
<path fill="#d5f5e3" stroke="black" d="M179.12,-118.5C179.12,-118.5 94.88,-118.5 94.88,-118.5 88.88,-118.5 82.88,-112.5 82.88,-106.5 82.88,-106.5 82.88,-94.5 82.88,-94.5 82.88,-88.5 88.88,-82.5 94.88,-82.5 94.88,-82.5 179.12,-82.5 179.12,-82.5 185.12,-82.5 191.12,-88.5 191.12,-94.5 191.12,-94.5 191.12,-106.5 191.12,-106.5 191.12,-112.5 185.12,-118.5 179.12,-118.5"/>
<text text-anchor="middle" x="137" y="-103.55" font-family="Arial" font-size="11.00">Ökonomische Ethik</text>
<text text-anchor="middle" x="137" y="-90.05" font-family="Arial" font-size="11.00">(Karl Homann)</text>
</g>
<!-- Macro&#45;&gt;Homann -->
<g id="edge4" class="edge">
<title>Macro&#45;&gt;Homann</title>
<path fill="none" stroke="black" d="M101.76,-164.53C107.6,-154.09 115.15,-140.59 121.75,-128.77"/>
<polygon fill="black" stroke="black" points="124.69,-130.69 126.52,-120.25 118.58,-127.28 124.69,-130.69"/>
<text text-anchor="middle" x="166.69" y="-138.45" font-family="Arial" font-size="9.00">Fokus: Rahmenordnung</text>
</g>
<!-- Wieland -->
<g id="node7" class="node">
<title>Wieland</title>
<path fill="#d5f5e3" stroke="black" d="M309.5,-118.5C309.5,-118.5 236.5,-118.5 236.5,-118.5 230.5,-118.5 224.5,-112.5 224.5,-106.5 224.5,-106.5 224.5,-94.5 224.5,-94.5 224.5,-88.5 230.5,-82.5 236.5,-82.5 236.5,-82.5 309.5,-82.5 309.5,-82.5 315.5,-82.5 321.5,-88.5 321.5,-94.5 321.5,-94.5 321.5,-106.5 321.5,-106.5 321.5,-112.5 315.5,-118.5 309.5,-118.5"/>
<text text-anchor="middle" x="273" y="-103.55" font-family="Arial" font-size="11.00">Governanceethik</text>
<text text-anchor="middle" x="273" y="-90.05" font-family="Arial" font-size="11.00">(Josef Wieland)</text>
</g>
<!-- Meso&#45;&gt;Wieland -->
<g id="edge6" class="edge">
<title>Meso&#45;&gt;Wieland</title>
<path fill="none" stroke="black" d="M277.7,-164.53C276.95,-154.51 275.99,-141.68 275.14,-130.21"/>
<polygon fill="black" stroke="black" points="278.65,-130.15 274.41,-120.44 271.66,-130.68 278.65,-130.15"/>
<text text-anchor="middle" x="323.98" y="-138.45" font-family="Arial" font-size="9.00">Vertrauen &amp; Reputation</text>
</g>
<!-- Behavioral -->
<g id="node8" class="node">
<title>Behavioral</title>
<path fill="#fcf3cf" stroke="black" d="M472.88,-118.5C472.88,-118.5 351.12,-118.5 351.12,-118.5 345.12,-118.5 339.12,-112.5 339.12,-106.5 339.12,-106.5 339.12,-94.5 339.12,-94.5 339.12,-88.5 345.12,-82.5 351.12,-82.5 351.12,-82.5 472.88,-82.5 472.88,-82.5 478.88,-82.5 484.88,-88.5 484.88,-94.5 484.88,-94.5 484.88,-106.5 484.88,-106.5 484.88,-112.5 478.88,-118.5 472.88,-118.5"/>
<text text-anchor="middle" x="412" y="-103.55" font-family="Arial" font-size="11.00">Behavioral Business Ethics</text>
<text text-anchor="middle" x="412" y="-90.05" font-family="Arial" font-size="11.00">(Deskriptive Perspektive)</text>
</g>
<!-- Micro&#45;&gt;Behavioral -->
<g id="edge7" class="edge">
<title>Micro&#45;&gt;Behavioral</title>
<path fill="none" stroke="black" d="M448.8,-164.53C442.7,-154.09 434.83,-140.59 427.92,-128.77"/>
<polygon fill="black" stroke="black" points="431.01,-127.11 422.94,-120.24 424.96,-130.64 431.01,-127.11"/>
<text text-anchor="middle" x="484.06" y="-138.45" font-family="Arial" font-size="9.00">Empirisches Verhalten</text>
</g>
<!-- Welfare -->
<g id="node9" class="node">
<title>Welfare</title>
<path fill="#f1948a" stroke="black" d="M385.25,-36C385.25,-36 298.75,-36 298.75,-36 292.75,-36 286.75,-30 286.75,-24 286.75,-24 286.75,-12 286.75,-12 286.75,-6 292.75,0 298.75,0 298.75,0 385.25,0 385.25,0 391.25,0 397.25,-6 397.25,-12 397.25,-12 397.25,-24 397.25,-24 397.25,-30 391.25,-36 385.25,-36"/>
<text text-anchor="middle" x="342" y="-21.05" font-family="Arial" font-size="11.00">Zweck: Wohlfahrt &amp;</text>
<text text-anchor="middle" x="342" y="-7.55" font-family="Arial" font-size="11.00">Gemeinwohl</text>
</g>
<!-- Homann&#45;&gt;Welfare -->
<g id="edge8" class="edge">
<title>Homann&#45;&gt;Welfare</title>
<path fill="none" stroke="black" d="M181.48,-82.03C212.51,-69.85 254.11,-53.51 287.19,-40.52"/>
<polygon fill="black" stroke="black" points="288.17,-43.9 296.2,-36.99 285.61,-37.38 288.17,-43.9"/>
</g>
<!-- Ulrich&#45;&gt;Welfare -->
<g id="edge9" class="edge">
<title>Ulrich&#45;&gt;Welfare</title>
<path fill="none" stroke="black" d="M537.72,-82.02C517.62,-72.97 492.25,-62.15 469,-54 449.61,-47.2 428.18,-40.86 408.53,-35.5"/>
<polygon fill="black" stroke="black" points="409.54,-32.15 398.98,-32.93 407.73,-38.91 409.54,-32.15"/>
</g>
<!-- Wieland&#45;&gt;Welfare -->
<g id="edge10" class="edge">
<title>Wieland&#45;&gt;Welfare</title>
<path fill="none" stroke="black" d="M287.97,-82.03C297.29,-71.17 309.43,-57 319.84,-44.85"/>
<polygon fill="black" stroke="black" points="322.22,-47.45 326.07,-37.58 316.91,-42.9 322.22,-47.45"/>
</g>
<!-- Behavioral&#45;&gt;Welfare -->
<g id="edge11" class="edge">
<title>Behavioral&#45;&gt;Welfare</title>
<path fill="none" stroke="black" d="M396.81,-82.03C387.36,-71.17 375.04,-57 364.48,-44.85"/>
<polygon fill="black" stroke="black" points="367.36,-42.82 358.15,-37.58 362.07,-47.42 367.36,-42.82"/>
<text text-anchor="middle" x="423.19" y="-55.95" font-family="Arial" font-size="9.00">Kompatibilität prüfen</text>
</g>
</g>
</svg>
