<?xml version="1.0" encoding="UTF-8" standalone="no"?>
<!DOCTYPE svg PUBLIC "-//W3C//DTD SVG 1.1//EN"
 "http://www.w3.org/Graphics/SVG/1.1/DTD/svg11.dtd">
<!-- Generated by graphviz version 12.2.1 (20241206.2353)
 -->
<!-- Pages: 1 -->
<svg width="706pt" height="374pt"
 viewBox="0.00 0.00 706.40 374.08" xmlns="http://www.w3.org/2000/svg" xmlns:xlink="http://www.w3.org/1999/xlink">
<g id="graph0" class="graph" transform="scale(1 1) rotate(0) translate(4 370.08)">
<polygon fill="white" stroke="none" points="-4,4 -4,-370.08 702.4,-370.08 702.4,4 -4,4"/>
<g id="clust1" class="cluster">
<title>cluster_incentive</title>
<polygon fill="none" stroke="gray" stroke-dasharray="5,2" points="423,-101.58 423,-358.08 649,-358.08 649,-101.58 423,-101.58"/>
<text text-anchor="middle" x="536" y="-340.78" font-family="Times New Roman,serif" font-size="14.00">Funktion als Anreiz</text>
</g>
<g id="clust2" class="cluster">
<title>cluster_econ</title>
<polygon fill="none" stroke="gray" stroke-dasharray="5,2" points="8,-101.58 8,-358.08 174,-358.08 174,-101.58 8,-101.58"/>
<text text-anchor="middle" x="91" y="-340.78" font-family="Times New Roman,serif" font-size="14.00">Wirtschafts&#45; &amp; Spieltheorie</text>
</g>
<g id="clust3" class="cluster">
<title>cluster_det</title>
<polygon fill="none" stroke="gray" stroke-dasharray="5,2" points="219,-197.58 219,-358.08 359,-358.08 359,-197.58 219,-197.58"/>
<text text-anchor="middle" x="289" y="-340.78" font-family="Times New Roman,serif" font-size="14.00">Metaphysische Brücke</text>
</g>
<!-- SP -->
<g id="node1" class="node">
<title>SP</title>
<path fill="#aed6f1" stroke="black" d="M600.25,-241.58C600.25,-241.58 447.75,-241.58 447.75,-241.58 441.75,-241.58 435.75,-235.58 435.75,-229.58 435.75,-229.58 435.75,-217.58 435.75,-217.58 435.75,-211.58 441.75,-205.58 447.75,-205.58 447.75,-205.58 600.25,-205.58 600.25,-205.58 606.25,-205.58 612.25,-211.58 612.25,-217.58 612.25,-217.58 612.25,-229.58 612.25,-229.58 612.25,-235.58 606.25,-241.58 600.25,-241.58"/>
<text text-anchor="middle" x="524" y="-226.63" font-family="Helvetica,sans-Serif" font-size="11.00">Soziale Praxis der Verantwortung</text>
<text text-anchor="middle" x="524" y="-213.13" font-family="Helvetica,sans-Serif" font-size="11.00">(Rechenschaftspflicht)</text>
</g>
<!-- IV -->
<g id="node2" class="node">
<title>IV</title>
<path fill="#d5f5e3" stroke="black" d="M153.5,-145.58C153.5,-145.58 62.5,-145.58 62.5,-145.58 56.5,-145.58 50.5,-139.58 50.5,-133.58 50.5,-133.58 50.5,-121.58 50.5,-121.58 50.5,-115.58 56.5,-109.58 62.5,-109.58 62.5,-109.58 153.5,-109.58 153.5,-109.58 159.5,-109.58 165.5,-115.58 165.5,-121.58 165.5,-121.58 165.5,-133.58 165.5,-133.58 165.5,-139.58 159.5,-145.58 153.5,-145.58"/>
<text text-anchor="middle" x="108" y="-130.63" font-family="Helvetica,sans-Serif" font-size="11.00">Individuelle Vernunft</text>
<text text-anchor="middle" x="108" y="-117.13" font-family="Helvetica,sans-Serif" font-size="11.00">(Handlungsfähigkeit)</text>
</g>
<!-- SP&#45;&gt;IV -->
<g id="edge1" class="edge">
<title>SP&#45;&gt;IV</title>
<path fill="none" stroke="#2e86c1" stroke-width="2" d="M435.47,-208.51C411.93,-204.85 386.51,-200.99 363,-197.58 330.16,-192.81 318.58,-202.62 289,-187.58 275.83,-180.88 278.88,-170.82 266,-163.58 239.46,-148.65 207.06,-140.08 178.53,-135.17"/>
<polygon fill="#2e86c1" stroke="#2e86c1" stroke-width="2" points="179.14,-131.73 168.72,-133.64 178.06,-138.64 179.14,-131.73"/>
<text text-anchor="middle" x="341.5" y="-172.08" font-family="Helvetica,sans-Serif" font-size="10.00">konstituiert &amp; stabilisiert</text>
</g>
<!-- Delib -->
<g id="node4" class="node">
<title>Delib</title>
<path fill="#d6eaf8" stroke="black" d="M594.75,-145.58C594.75,-145.58 481.25,-145.58 481.25,-145.58 475.25,-145.58 469.25,-139.58 469.25,-133.58 469.25,-133.58 469.25,-121.58 469.25,-121.58 469.25,-115.58 475.25,-109.58 481.25,-109.58 481.25,-109.58 594.75,-109.58 594.75,-109.58 600.75,-109.58 606.75,-115.58 606.75,-121.58 606.75,-121.58 606.75,-133.58 606.75,-133.58 606.75,-139.58 600.75,-145.58 594.75,-145.58"/>
<text text-anchor="middle" x="538" y="-130.63" font-family="Helvetica,sans-Serif" font-size="11.00">Erzwungene Deliberation</text>
<text text-anchor="middle" x="538" y="-117.13" font-family="Helvetica,sans-Serif" font-size="11.00">(Reflexion der Folgen)</text>
</g>
<!-- SP&#45;&gt;Delib -->
<g id="edge5" class="edge">
<title>SP&#45;&gt;Delib</title>
<path fill="none" stroke="black" d="M526.43,-205.27C528.1,-193.51 530.39,-177.6 532.5,-163.58 532.81,-161.52 533.13,-159.4 533.46,-157.26"/>
<polygon fill="black" stroke="black" points="536.9,-157.93 534.98,-147.51 529.98,-156.85 536.9,-157.93"/>
<text text-anchor="middle" x="581.25" y="-172.08" font-family="Helvetica,sans-Serif" font-size="10.00">erzeugt Notwendigkeit</text>
</g>
<!-- KF -->
<g id="node8" class="node">
<title>KF</title>
<path fill="#d2b4de" stroke="black" d="M328.5,-241.58C328.5,-241.58 249.5,-241.58 249.5,-241.58 243.5,-241.58 237.5,-235.58 237.5,-229.58 237.5,-229.58 237.5,-217.58 237.5,-217.58 237.5,-211.58 243.5,-205.58 249.5,-205.58 249.5,-205.58 328.5,-205.58 328.5,-205.58 334.5,-205.58 340.5,-211.58 340.5,-217.58 340.5,-217.58 340.5,-229.58 340.5,-229.58 340.5,-235.58 334.5,-241.58 328.5,-241.58"/>
<text text-anchor="middle" x="289" y="-226.63" font-family="Helvetica,sans-Serif" font-size="11.00">Verantwortung als</text>
<text text-anchor="middle" x="289" y="-213.13" font-family="Helvetica,sans-Serif" font-size="11.00">Kausaler Faktor</text>
</g>
<!-- SP&#45;&gt;KF -->
<g id="edge10" class="edge">
<title>SP&#45;&gt;KF</title>
<path fill="none" stroke="black" d="M435.32,-223.58C407.68,-223.58 377.78,-223.58 352.26,-223.58"/>
<polygon fill="black" stroke="black" points="352.38,-220.08 342.38,-223.58 352.38,-227.08 352.38,-220.08"/>
<text text-anchor="middle" x="388.12" y="-229.08" font-family="Helvetica,sans-Serif" font-size="10.00">wirkt als</text>
</g>
<!-- Person -->
<g id="node9" class="node">
<title>Person</title>
<path fill="#f5b7b1" stroke="black" d="M496.29,-27.09C496.29,-27.09 496.29,-34.49 496.29,-34.49 496.29,-38.19 492.69,-42.71 489.08,-43.53 489.08,-43.53 434.8,-55.93 434.8,-55.93 431.19,-56.75 423.89,-57.58 420.19,-57.58 420.19,-57.58 337.81,-57.58 337.81,-57.58 334.11,-57.58 326.81,-56.75 323.2,-55.93 323.2,-55.93 268.92,-43.53 268.92,-43.53 265.31,-42.71 261.71,-38.19 261.71,-34.49 261.71,-34.49 261.71,-27.09 261.71,-27.09 261.71,-23.39 265.31,-18.87 268.92,-18.04 268.92,-18.04 323.2,-5.65 323.2,-5.65 326.81,-4.82 334.11,-4 337.81,-4 337.81,-4 420.19,-4 420.19,-4 423.89,-4 431.19,-4.82 434.8,-5.65 434.8,-5.65 489.08,-18.04 489.08,-18.04 492.69,-18.87 496.29,-23.39 496.29,-27.09"/>
<path fill="none" stroke="black" d="M500.29,-26.03C500.29,-26.03 500.29,-35.55 500.29,-35.55 500.29,-40.31 495.65,-46.13 491.01,-47.19 491.01,-47.19 437.32,-59.46 437.32,-59.46 432.68,-60.52 423.27,-61.58 418.51,-61.58 418.51,-61.58 339.49,-61.58 339.49,-61.58 334.73,-61.58 325.32,-60.52 320.68,-59.46 320.68,-59.46 266.99,-47.19 266.99,-47.19 262.35,-46.13 257.71,-40.31 257.71,-35.55 257.71,-35.55 257.71,-26.03 257.71,-26.03 257.71,-21.26 262.35,-15.44 266.99,-14.38 266.99,-14.38 320.68,-2.12 320.68,-2.12 325.32,-1.06 334.73,0 339.49,0 339.49,0 418.51,0 418.51,0 423.27,0 432.68,-1.06 437.32,-2.12 437.32,-2.12 491.01,-14.38 491.01,-14.38 495.65,-15.44 500.29,-21.26 500.29,-26.03"/>
<text text-anchor="middle" x="379" y="-33.84" font-family="Helvetica,sans-Serif" font-size="11.00">Selbstkonstitution</text>
<text text-anchor="middle" x="379" y="-20.34" font-family="Helvetica,sans-Serif" font-size="11.00">(Zurechnungsfähige Person)</text>
</g>
<!-- SP&#45;&gt;Person -->
<g id="edge14" class="edge">
<title>SP&#45;&gt;Person</title>
<path fill="none" stroke="black" d="M612.6,-206.18C620.91,-201.42 628.32,-195.34 634,-187.58 649.27,-166.69 630.11,-115.74 616,-101.58 587.98,-73.45 549.25,-56.54 511.21,-46.41"/>
<polygon fill="black" stroke="black" points="512.53,-43.14 501.97,-44.1 510.82,-49.93 512.53,-43.14"/>
<text text-anchor="middle" x="667.65" y="-124.08" font-family="Helvetica,sans-Serif" font-size="10.00">erkennt an als</text>
</g>
<!-- IV&#45;&gt;SP -->
<g id="edge2" class="edge">
<title>IV&#45;&gt;SP</title>
<path fill="none" stroke="#28b463" stroke-width="2" d="M165.76,-128.56C224.7,-130.17 318.03,-137.22 394,-163.58 413.41,-170.31 415.07,-178.5 433.5,-187.58 442.74,-192.13 452.73,-196.5 462.58,-200.52"/>
<polygon fill="#28b463" stroke="#28b463" stroke-width="2" points="461.07,-203.69 471.66,-204.12 463.66,-197.18 461.07,-203.69"/>
<text text-anchor="middle" x="479.25" y="-172.08" font-family="Helvetica,sans-Serif" font-size="10.00">ermöglicht Teilnahme</text>
</g>
<!-- IV&#45;&gt;Person -->
<g id="edge13" class="edge">
<title>IV&#45;&gt;Person</title>
<path fill="none" stroke="black" d="M158.02,-109.08C196.82,-95.51 251.41,-76.41 296.63,-60.6"/>
<polygon fill="black" stroke="black" points="297.6,-63.97 305.88,-57.36 295.29,-57.36 297.6,-63.97"/>
<text text-anchor="middle" x="253.37" y="-82.08" font-family="Helvetica,sans-Serif" font-size="10.00">führt zur</text>
</g>
<!-- Worms -->
<g id="node3" class="node">
<title>Worms</title>
<path fill="#fadbd8" stroke="black" d="M628.75,-325.58C628.75,-325.58 443.25,-325.58 443.25,-325.58 437.25,-325.58 431.25,-319.58 431.25,-313.58 431.25,-313.58 431.25,-301.58 431.25,-301.58 431.25,-295.58 437.25,-289.58 443.25,-289.58 443.25,-289.58 628.75,-289.58 628.75,-289.58 634.75,-289.58 640.75,-295.58 640.75,-301.58 640.75,-301.58 640.75,-313.58 640.75,-313.58 640.75,-319.58 634.75,-325.58 628.75,-325.58"/>
<text text-anchor="middle" x="536" y="-310.63" font-family="Helvetica,sans-Serif" font-size="11.00">Lenmans Würmer</text>
<text text-anchor="middle" x="536" y="-297.13" font-family="Helvetica,sans-Serif" font-size="11.00">(Keine Verantwortung = Fantasie&#45;Moral)</text>
</g>
<!-- Worms&#45;&gt;SP -->
<g id="edge4" class="edge">
<title>Worms&#45;&gt;SP</title>
<path fill="none" stroke="black" stroke-dasharray="1,5" d="M533.46,-289.19C531.93,-278.75 529.95,-265.22 528.19,-253.23"/>
<polygon fill="black" stroke="black" points="531.67,-252.83 526.76,-243.44 524.75,-253.84 531.67,-252.83"/>
<text text-anchor="middle" x="549.09" y="-262.08" font-family="Helvetica,sans-Serif" font-size="10.00">Kontrast</text>
</g>
<!-- Worms&#45;&gt;Delib -->
<!-- HO -->
<g id="node5" class="node">
<title>HO</title>
<path fill="#fcf3cf" stroke="black" d="M132.75,-325.58C132.75,-325.58 37.25,-325.58 37.25,-325.58 31.25,-325.58 25.25,-319.58 25.25,-313.58 25.25,-313.58 25.25,-301.58 25.25,-301.58 25.25,-295.58 31.25,-289.58 37.25,-289.58 37.25,-289.58 132.75,-289.58 132.75,-289.58 138.75,-289.58 144.75,-295.58 144.75,-301.58 144.75,-301.58 144.75,-313.58 144.75,-313.58 144.75,-319.58 138.75,-325.58 132.75,-325.58"/>
<text text-anchor="middle" x="85" y="-310.63" font-family="Helvetica,sans-Serif" font-size="11.00">Homo Oeconomicus</text>
<text text-anchor="middle" x="85" y="-297.13" font-family="Helvetica,sans-Serif" font-size="11.00">(Nutzenmaximierung)</text>
</g>
<!-- Sanktion -->
<g id="node6" class="node">
<title>Sanktion</title>
<path fill="#fcf3cf" stroke="black" d="M135.75,-241.58C135.75,-241.58 28.25,-241.58 28.25,-241.58 22.25,-241.58 16.25,-235.58 16.25,-229.58 16.25,-229.58 16.25,-217.58 16.25,-217.58 16.25,-211.58 22.25,-205.58 28.25,-205.58 28.25,-205.58 135.75,-205.58 135.75,-205.58 141.75,-205.58 147.75,-211.58 147.75,-217.58 147.75,-217.58 147.75,-229.58 147.75,-229.58 147.75,-235.58 141.75,-241.58 135.75,-241.58"/>
<text text-anchor="middle" x="82" y="-226.63" font-family="Helvetica,sans-Serif" font-size="11.00">Sanktionen / Reputation</text>
<text text-anchor="middle" x="82" y="-213.13" font-family="Helvetica,sans-Serif" font-size="11.00">(Kostenfaktoren)</text>
</g>
<!-- HO&#45;&gt;Sanktion -->
<!-- HO&#45;&gt;Sanktion -->
<g id="edge7" class="edge">
<title>HO&#45;&gt;Sanktion</title>
<path fill="none" stroke="black" d="M84.36,-289.19C83.98,-278.75 83.49,-265.22 83.05,-253.23"/>
<polygon fill="black" stroke="black" points="86.55,-253.32 82.69,-243.45 79.56,-253.57 86.55,-253.32"/>
<text text-anchor="middle" x="103.18" y="-262.08" font-family="Helvetica,sans-Serif" font-size="10.00">kalkuliert</text>
</g>
<!-- Sanktion&#45;&gt;IV -->
<g id="edge8" class="edge">
<title>Sanktion&#45;&gt;IV</title>
<path fill="none" stroke="black" d="M49.95,-205.28C43.82,-200.4 38.24,-194.5 34.75,-187.58 29.95,-178.05 29.06,-172.6 34.75,-163.58 37.33,-159.48 40.53,-155.86 44.15,-152.65"/>
<polygon fill="black" stroke="black" points="46.08,-155.58 52.01,-146.81 41.9,-149.97 46.08,-155.58"/>
<text text-anchor="middle" x="95.88" y="-178.08" font-family="Helvetica,sans-Serif" font-size="10.00">transformiert Eigeninteresse</text>
<text text-anchor="middle" x="95.88" y="-166.08" font-family="Helvetica,sans-Serif" font-size="10.00">in Kooperation</text>
</g>
<!-- Det -->
<g id="node7" class="node">
<title>Det</title>
<path fill="#eaecee" stroke="black" d="M314.5,-325.58C314.5,-325.58 247.5,-325.58 247.5,-325.58 241.5,-325.58 235.5,-319.58 235.5,-313.58 235.5,-313.58 235.5,-301.58 235.5,-301.58 235.5,-295.58 241.5,-289.58 247.5,-289.58 247.5,-289.58 314.5,-289.58 314.5,-289.58 320.5,-289.58 326.5,-295.58 326.5,-301.58 326.5,-301.58 326.5,-313.58 326.5,-313.58 326.5,-319.58 320.5,-325.58 314.5,-325.58"/>
<text text-anchor="middle" x="281" y="-310.63" font-family="Helvetica,sans-Serif" font-size="11.00">Determinismus</text>
<text text-anchor="middle" x="281" y="-297.13" font-family="Helvetica,sans-Serif" font-size="11.00">(Kausale Kette)</text>
</g>
<!-- Det&#45;&gt;KF -->
<g id="edge9" class="edge">
<title>Det&#45;&gt;KF</title>
<path fill="none" stroke="black" d="M268.69,-289.29C263.91,-280.46 260.26,-269.51 263.5,-259.58 264.4,-256.82 265.6,-254.11 267,-251.48"/>
<polygon fill="black" stroke="black" points="269.88,-253.47 272.3,-243.16 263.97,-249.71 269.88,-253.47"/>
<text text-anchor="middle" x="282.25" y="-262.08" font-family="Helvetica,sans-Serif" font-size="10.00">integriert</text>
</g>
<!-- Det&#45;&gt;KF -->
<!-- KF&#45;&gt;IV -->
<g id="edge11" class="edge">
<title>KF&#45;&gt;IV</title>
<path fill="none" stroke="black" d="M237.09,-211.35C218.38,-205.91 197.67,-198.2 180.5,-187.58 167.8,-179.72 168.34,-173.28 157,-163.58 152.64,-159.85 147.91,-156.11 143.15,-152.54"/>
<polygon fill="black" stroke="black" points="145.44,-149.88 135.3,-146.81 141.32,-155.53 145.44,-149.88"/>
<text text-anchor="middle" x="223.25" y="-172.08" font-family="Helvetica,sans-Serif" font-size="10.00">determiniert Gründe</text>
</g>
</g>
</svg>
