<?xml version="1.0" encoding="UTF-8" standalone="no"?>
<!DOCTYPE svg PUBLIC "-//W3C//DTD SVG 1.1//EN"
 "http://www.w3.org/Graphics/SVG/1.1/DTD/svg11.dtd">
<!-- Generated by graphviz version 12.2.1 (20241206.2353)
 -->
<!-- Title: G Pages: 1 -->
<svg width="546pt" height="188pt"
 viewBox="0.00 0.00 546.00 188.00" xmlns="http://www.w3.org/2000/svg" xmlns:xlink="http://www.w3.org/1999/xlink">
<g id="graph0" class="graph" transform="scale(1 1) rotate(0) translate(4 184)">
<title>G</title>
<polygon fill="white" stroke="none" points="-4,4 -4,-184 542,-184 542,4 -4,4"/>
<g id="clust1" class="cluster">
<title>cluster_0</title>
<path fill="Deepskyblue" stroke="Deepskyblue" d="M20,-8C20,-8 518,-8 518,-8 524,-8 530,-14 530,-20 530,-20 530,-160 530,-160 530,-166 524,-172 518,-172 518,-172 20,-172 20,-172 14,-172 8,-166 8,-160 8,-160 8,-20 8,-20 8,-14 14,-8 20,-8"/>
<text text-anchor="middle" x="269" y="-150.9" font-family="Times New Roman,serif" font-size="18.00">Verantwortungssubjekt</text>
</g>
<g id="clust2" class="cluster">
<title>cluster_1</title>
<path fill="Deepskyblue" stroke="Deepskyblue" d="M28,-16C28,-16 236,-16 236,-16 242,-16 248,-22 248,-28 248,-28 248,-123 248,-123 248,-129 242,-135 236,-135 236,-135 28,-135 28,-135 22,-135 16,-129 16,-123 16,-123 16,-28 16,-28 16,-22 22,-16 28,-16"/>
<text text-anchor="middle" x="132" y="-113.9" font-family="Times New Roman,serif" font-size="18.00">Individuum</text>
</g>
<g id="clust3" class="cluster">
<title>cluster_2</title>
<path fill="Deepskyblue" stroke="Deepskyblue" d="M268,-16C268,-16 510,-16 510,-16 516,-16 522,-22 522,-28 522,-28 522,-123 522,-123 522,-129 516,-135 510,-135 510,-135 268,-135 268,-135 262,-135 256,-129 256,-123 256,-123 256,-28 256,-28 256,-22 262,-16 268,-16"/>
<text text-anchor="middle" x="389" y="-113.9" font-family="Times New Roman,serif" font-size="18.00">Gesellschaft</text>
</g>
<!-- a1 -->
<g id="node1" class="node">
<title>a1</title>
<text text-anchor="start" x="32" y="-80.7" font-family="Times New Roman,serif" font-size="14.00">unmittelbare individuelle</text>
<text text-anchor="start" x="32" y="-64.2" font-family="Times New Roman,serif" font-size="14.00"> Verantwortung</text>
<text text-anchor="start" x="32" y="-47.7" font-family="Times New Roman,serif" font-size="14.00"> </text>
<text text-anchor="start" x="32" y="-31.2" font-family="Times New Roman,serif" font-size="14.00"> &#160;</text>
</g>
<!-- b1 -->
<g id="node2" class="node">
<title>b1</title>
<text text-anchor="start" x="272.38" y="-80.7" font-family="Times New Roman,serif" font-size="14.00">Die Verantwortung ist nicht</text>
<text text-anchor="start" x="272.38" y="-64.2" font-family="Times New Roman,serif" font-size="14.00"> einem einzelenen Individuum zuzuordnen</text>
<text text-anchor="start" x="272.38" y="-47.7" font-family="Times New Roman,serif" font-size="14.00">&#45; Zivilgesellschaft</text>
<text text-anchor="start" x="272.38" y="-31.2" font-family="Times New Roman,serif" font-size="14.00">&#45; Staat</text>
</g>
</g>
</svg>
