<?xml version="1.0" encoding="UTF-8" standalone="no"?>
<!DOCTYPE svg PUBLIC "-//W3C//DTD SVG 1.1//EN"
 "http://www.w3.org/Graphics/SVG/1.1/DTD/svg11.dtd">
<!-- Generated by graphviz version 12.2.1 (20241206.2353)
 -->
<!-- Pages: 1 -->
<svg width="387pt" height="104pt"
 viewBox="0.00 0.00 386.75 104.01" xmlns="http://www.w3.org/2000/svg" xmlns:xlink="http://www.w3.org/1999/xlink">
<g id="graph0" class="graph" transform="scale(1 1) rotate(0) translate(4 100.01)">
<polygon fill="white" stroke="none" points="-4,4 -4,-100.01 382.75,-100.01 382.75,4 -4,4"/>
<!-- a -->
<g id="node1" class="node">
<title>a</title>
<path fill="#0000ff" fill-opacity="0.200000" stroke="#0000ff" stroke-width="1.5" d="M132,-55.86C132,-55.86 12,-55.86 12,-55.86 6,-55.86 0,-49.86 0,-43.86 0,-43.86 0,-31.86 0,-31.86 0,-25.86 6,-19.86 12,-19.86 12,-19.86 132,-19.86 132,-19.86 138,-19.86 144,-25.86 144,-31.86 144,-31.86 144,-43.86 144,-43.86 144,-49.86 138,-55.86 132,-55.86"/>
<text text-anchor="middle" x="72" y="-32.81" font-family="Times New Roman,serif" font-size="14.00">Gerechtigkeit</text>
</g>
<!-- c -->
<g id="node2" class="node">
<title>c</title>
<path fill="#ff0000" fill-opacity="0.200000" stroke="#ff0000" stroke-width="1.5" d="M366.75,-55.86C366.75,-55.86 246.75,-55.86 246.75,-55.86 240.75,-55.86 234.75,-49.86 234.75,-43.86 234.75,-43.86 234.75,-31.86 234.75,-31.86 234.75,-25.86 240.75,-19.86 246.75,-19.86 246.75,-19.86 366.75,-19.86 366.75,-19.86 372.75,-19.86 378.75,-25.86 378.75,-31.86 378.75,-31.86 378.75,-43.86 378.75,-43.86 378.75,-49.86 372.75,-55.86 366.75,-55.86"/>
<text text-anchor="middle" x="306.75" y="-32.81" font-family="Times New Roman,serif" font-size="14.00">Verantwortung</text>
</g>
<!-- a&#45;&gt;c -->
<g id="edge1" class="edge">
<title>a&#45;&gt;c</title>
<path fill="none" stroke="black" d="M107.03,-56.22C123.19,-63.92 143.07,-71.98 162,-75.86 185.84,-80.73 192.91,-80.73 216.75,-75.86 231.83,-72.77 247.52,-67.02 261.45,-60.92"/>
<polygon fill="black" stroke="black" points="262.71,-64.19 270.34,-56.85 259.8,-57.83 262.71,-64.19"/>
<text text-anchor="middle" x="189.38" y="-82.71" font-family="Times New Roman,serif" font-size="14.00">fragt nach</text>
</g>
<!-- a&#45;&gt;c -->
<!-- c&#45;&gt;a -->
<g id="edge3" class="edge">
<title>c&#45;&gt;a</title>
<path fill="none" stroke="black" d="M267.67,-19.53C252.24,-13.05 234.02,-6.58 216.75,-3.36 192.83,1.12 185.92,1.12 162,-3.36 148.51,-5.88 134.44,-10.38 121.56,-15.31"/>
<polygon fill="black" stroke="black" points="120.45,-11.99 112.48,-18.96 123.06,-18.48 120.45,-11.99"/>
<text text-anchor="middle" x="189.38" y="-6.56" font-family="Times New Roman,serif" font-size="14.00">für</text>
</g>
</g>
</svg>
