<?xml version="1.0" encoding="UTF-8" standalone="no"?>
<!DOCTYPE svg PUBLIC "-//W3C//DTD SVG 1.1//EN"
 "http://www.w3.org/Graphics/SVG/1.1/DTD/svg11.dtd">
<!-- Generated by graphviz version 12.2.1 (20241206.2353)
 -->
<!-- Title: G Pages: 1 -->
<svg width="512pt" height="265pt"
 viewBox="0.00 0.00 512.00 265.00" xmlns="http://www.w3.org/2000/svg" xmlns:xlink="http://www.w3.org/1999/xlink">
<g id="graph0" class="graph" transform="scale(1 1) rotate(0) translate(4 261)">
<title>G</title>
<polygon fill="white" stroke="none" points="-4,4 -4,-261 508,-261 508,4 -4,4"/>
<g id="clust1" class="cluster">
<title>cluster_0</title>
<path fill="Cornflowerblue" stroke="Cornflowerblue" d="M20,-8C20,-8 484,-8 484,-8 490,-8 496,-14 496,-20 496,-20 496,-237 496,-237 496,-243 490,-249 484,-249 484,-249 20,-249 20,-249 14,-249 8,-243 8,-237 8,-237 8,-20 8,-20 8,-14 14,-8 20,-8"/>
<text text-anchor="middle" x="252" y="-227.9" font-family="Times New Roman,serif" font-size="18.00">Verantwortung</text>
</g>
<g id="clust2" class="cluster">
<title>cluster_1</title>
<path fill="Cornflowerblue" stroke="Cornflowerblue" d="M28,-24.25C28,-24.25 236,-24.25 236,-24.25 242,-24.25 248,-30.25 248,-36.25 248,-36.25 248,-200 248,-200 248,-206 242,-212 236,-212 236,-212 28,-212 28,-212 22,-212 16,-206 16,-200 16,-200 16,-36.25 16,-36.25 16,-30.25 22,-24.25 28,-24.25"/>
<text text-anchor="middle" x="132" y="-190.9" font-family="Times New Roman,serif" font-size="18.00">Relational</text>
</g>
<g id="clust4" class="cluster">
<title>cluster_2</title>
<path fill="Cornflowerblue" stroke="Cornflowerblue" d="M268,-16C268,-16 476,-16 476,-16 482,-16 488,-22 488,-28 488,-28 488,-200 488,-200 488,-206 482,-212 476,-212 476,-212 268,-212 268,-212 262,-212 256,-206 256,-200 256,-200 256,-28 256,-28 256,-22 262,-16 268,-16"/>
<text text-anchor="middle" x="372" y="-190.9" font-family="Times New Roman,serif" font-size="18.00">Nicht&#45;relational</text>
</g>
<!-- a1 -->
<g id="node1" class="node">
<title>a1</title>
<text text-anchor="start" x="32" y="-157.7" font-family="Times New Roman,serif" font-size="14.00">Beruht auf besonderen</text>
<text text-anchor="start" x="32" y="-141.2" font-family="Times New Roman,serif" font-size="14.00"> Beziehungen</text>
</g>
<!-- a2 -->
<g id="node2" class="node">
<title>a2</title>
<text text-anchor="start" x="32" y="-72.45" font-family="Times New Roman,serif" font-size="14.00">&#45; gleicher Staat</text>
<text text-anchor="start" x="32" y="-55.95" font-family="Times New Roman,serif" font-size="14.00">&#45; historische Verbundenheit</text>
<text text-anchor="start" x="32" y="-39.45" font-family="Times New Roman,serif" font-size="14.00">&#45; ...</text>
</g>
<!-- a1&#45;&gt;a2 -->
<!-- b1 -->
<g id="node3" class="node">
<title>b1</title>
<text text-anchor="start" x="272" y="-157.7" font-family="Times New Roman,serif" font-size="14.00">Besteht unabhängig von</text>
<text text-anchor="start" x="272" y="-141.2" font-family="Times New Roman,serif" font-size="14.00"> besonderen Beziehungen</text>
</g>
<!-- b2 -->
<g id="node4" class="node">
<title>b2</title>
<text text-anchor="start" x="272" y="-80.7" font-family="Times New Roman,serif" font-size="14.00">&#45; Unterstützung bei</text>
<text text-anchor="start" x="272" y="-64.2" font-family="Times New Roman,serif" font-size="14.00"> &#160;&#160;Hungersnot</text>
<text text-anchor="start" x="272" y="-47.7" font-family="Times New Roman,serif" font-size="14.00">&#45; Naturkatastrophen</text>
<text text-anchor="start" x="272" y="-31.2" font-family="Times New Roman,serif" font-size="14.00">&#45; ...</text>
</g>
<!-- b1&#45;&gt;b2 -->
</g>
</svg>
